<svg width="267" height="316" viewBox="0 0 267 316" fill="none" xmlns="http://www.w3.org/2000/svg">
<path d="M216.745 160.262C216.509 160.476 216.119 160.559 215.8 160.308L215.798 160.311C214.336 159.005 213.167 157.527 212.273 155.933C211.733 155.57 211.193 155.208 210.652 154.847L210.651 154.847L210.648 154.844C208.926 153.584 207.077 152.505 205.132 151.627C203.178 150.952 201.159 150.478 199.109 150.214C197.146 150.022 195.306 149.174 193.885 147.808L193.879 147.803L193.874 147.796C193.702 147.57 193.361 147.049 193.095 146.52C192.962 146.255 192.846 145.984 192.78 145.745C192.747 145.625 192.726 145.51 192.722 145.405C192.718 145.301 192.732 145.201 192.775 145.117C192.855 144.961 193.033 144.826 193.239 144.708C193.449 144.588 193.708 144.475 193.971 144.372C194.177 144.29 194.39 144.213 194.586 144.142C194.64 144.123 194.692 144.104 194.743 144.085C194.983 143.998 195.184 143.922 195.312 143.856C202.904 139.966 208.343 132.871 213.127 125.968C218.523 118.153 223.938 110.298 228.942 102.229C233.023 95.6483 236.854 88.6594 238.699 81.0971L238.699 81.0971L238.7 81.0944C239.696 77.4443 239.951 73.6318 239.451 69.8815L239.451 69.8809C239.344 69.0417 239.058 68.2354 238.611 67.5172C238.164 66.8002 237.569 66.1879 236.864 65.722C236.497 65.5221 236.072 65.4145 235.618 65.3447C235.314 65.2981 235.004 65.269 234.691 65.2398C234.532 65.2248 234.371 65.2098 234.211 65.1923C233.276 65.0906 232.354 64.9082 231.791 64.136L231.791 64.1361L231.788 64.1312C231.531 63.7316 231.363 63.2811 231.296 62.8106C231.23 62.3401 231.266 61.8608 231.401 61.4055C231.537 60.9502 231.77 60.5296 232.084 60.1727C232.398 59.8159 232.785 59.531 233.219 59.3379L233.219 59.3375L233.228 59.3345C234.276 58.98 235.406 58.9436 236.475 59.2297C237.544 59.5156 238.504 60.1108 239.235 60.9406C242.02 63.7914 242.906 68.53 243.011 72.3552C243.242 79.607 240.552 86.6471 237.371 93.0104L237.371 93.0106C234.499 98.7238 231.21 104.239 227.929 109.74C226.765 111.692 225.602 113.642 224.459 115.599L224.459 115.599C223.649 116.983 222.837 118.367 222.025 119.75C220.33 122.641 218.633 125.533 216.947 128.438L216.945 128.44C214.702 132.066 212.835 135.912 211.375 139.918C209.586 145.267 209.782 151.052 212.425 155.794C213.268 156.362 214.11 156.934 214.948 157.512C214.253 156.57 213.652 155.56 213.155 154.496C211.11 150.179 211.245 145.817 212.434 141.607C213.622 137.399 215.864 133.337 218.04 129.615C220.53 125.354 223.032 121.084 225.536 116.81C228.295 112.102 231.057 107.389 233.807 102.679L233.807 102.679C237.564 96.259 241.267 89.6503 243.262 82.4405L243.262 82.4404C245.158 75.6201 245.641 66.9543 241.328 60.9189L241.328 60.9188C239.299 58.0708 235.4 56.2249 232.087 57.996C231.42 58.3596 230.847 58.8736 230.414 59.4971C229.981 60.1207 229.699 60.8368 229.591 61.5885C229.483 62.3401 229.552 63.1066 229.792 63.827C230.032 64.5467 230.436 65.2007 230.972 65.737C231.718 66.4177 232.54 66.5815 233.398 66.6706C233.54 66.6853 233.684 66.698 233.828 66.7108C234.55 66.7745 235.295 66.8403 236.003 67.178L236.003 67.178L236.006 67.1796C237.089 67.7431 237.588 68.8875 237.814 70.1156C238.029 71.2861 238.001 72.5571 237.979 73.5281C237.978 73.5773 237.977 73.6257 237.976 73.6732L237.976 73.6751C237.813 77.7603 237.001 81.7935 235.57 85.6235C233.117 92.4588 229.255 98.6224 225.419 104.744C224.644 105.982 223.869 107.219 223.107 108.459C220.462 112.774 217.622 116.978 214.79 121.166C212.163 125.209 209.319 129.108 206.272 132.845C203.383 136.466 199.87 139.543 195.899 141.929L195.897 141.93C194.85 142.53 193.762 143.055 192.641 143.502L192.639 143.503C192.55 143.537 192.467 143.568 192.388 143.596C192.282 143.636 192.184 143.671 192.092 143.709C191.934 143.773 191.804 143.836 191.697 143.914C191.49 144.065 191.351 144.284 191.283 144.726C191.211 145.488 191.305 146.256 191.56 146.977C191.815 147.699 192.225 148.357 192.762 148.904L192.762 148.903L192.766 148.908C194.074 150.422 195.774 151.106 197.608 151.561C198.313 151.736 199.035 151.877 199.762 152.018C199.981 152.061 200.2 152.103 200.42 152.147C201.366 152.336 202.311 152.543 203.218 152.847L203.218 152.847L203.223 152.849C205.435 153.721 207.519 154.889 209.416 156.321C211.536 157.776 213.654 159.23 215.799 160.626L215.799 160.626C216.056 160.793 216.301 160.816 216.509 160.753C216.721 160.69 216.904 160.536 217.026 160.335C217.271 159.932 217.26 159.371 216.777 159.028C216.505 158.837 216.233 158.646 215.961 158.456C216.218 158.753 216.485 159.042 216.763 159.321C216.92 159.477 216.983 159.655 216.969 159.827C216.955 159.997 216.868 160.15 216.745 160.262ZM216.621 159.463C216.17 159.007 215.744 158.528 215.345 158.028C214.45 157.409 213.552 156.796 212.652 156.189C213.499 157.616 214.575 158.943 215.893 160.128L215.895 160.126C216.128 160.334 216.425 160.283 216.61 160.114C216.702 160.03 216.761 159.922 216.77 159.811C216.778 159.703 216.741 159.581 216.622 159.463L216.621 159.463Z" fill="#5D7049" stroke="white" stroke-width="0.2"/>
<path d="M167.554 174.019C170.724 167.41 174.332 161.021 178.354 154.893L178.354 154.893L178.356 154.89C179.969 152.605 182.069 149.908 184.569 147.966C187.069 146.024 189.981 144.829 193.21 145.574L193.211 145.574C193.886 145.734 194.387 145.298 194.549 144.765C194.629 144.499 194.621 144.218 194.512 143.987C194.404 143.76 194.193 143.571 193.846 143.491C190.244 142.701 186.987 143.775 184.148 145.707C181.307 147.64 178.89 150.427 176.975 153.048C173.105 158.375 170.098 164.236 167.092 170.097C166.172 171.891 165.252 173.686 164.306 175.465L164.306 175.465C160.678 182.284 156.628 189.057 150.881 194.367C145.28 199.558 138.279 203.367 131.71 206.941C130.666 207.509 129.634 208.07 128.62 208.631C126.223 209.955 123.825 211.299 121.423 212.645C116.405 215.457 111.367 218.281 106.265 220.968C98.9047 224.985 90.9664 227.836 82.7327 229.42L82.7312 229.42C75.9528 230.618 69.0613 231.173 62.1917 231.726C60.4735 231.864 58.7566 232.003 57.0433 232.151L30.5422 234.452L30.542 234.452L16.7179 235.674L16.7176 235.674L10.0913 236.28L10.0914 236.28L10.0849 236.28C8.38818 236.326 6.70461 236.593 5.07684 237.074C3.56285 237.633 2.65347 238.554 2.35272 239.634C2.0516 240.717 2.3532 241.987 3.31738 243.259C5.59278 246.161 8.77263 248.218 12.3506 249.104L167.644 174.062M167.554 174.019L167.644 174.062M167.554 174.019C167.554 174.019 167.554 174.019 167.554 174.019L167.644 174.062M167.554 174.019C164.432 180.504 160.565 186.602 156.029 192.191M167.644 174.062C164.519 180.555 160.647 186.66 156.106 192.255M156.029 192.191C156.03 192.19 156.03 192.19 156.03 192.19L156.106 192.255M156.029 192.191C150.717 198.359 143.805 202.55 136.754 206.456L136.754 206.456L114.882 218.598L114.879 218.6C108.209 222.563 101.192 225.914 93.9165 228.609M156.029 192.191C156.029 192.191 156.029 192.191 156.028 192.192L156.106 192.255M156.106 192.255L93.9165 228.609M93.9165 228.609C93.9174 228.609 93.9183 228.608 93.9192 228.608L93.9486 228.704L93.9138 228.61C93.9147 228.61 93.9156 228.609 93.9165 228.609ZM93.9165 228.609C86.5151 230.882 78.8735 232.282 71.1471 232.782L71.1443 232.782C64.0224 233.443 56.9041 234.018 49.7901 234.591C48.5047 234.695 47.2193 234.799 45.9341 234.903L45.9338 234.903C36.3649 235.714 26.7864 236.521 17.1983 237.324M93.9165 228.609L45.9422 235.003C36.3733 235.814 26.7948 236.621 17.2067 237.423M17.1983 237.324L17.1985 237.324L17.2067 237.423M17.1983 237.324L10.0159 237.911M17.1983 237.324L17.2067 237.423M17.2067 237.423L10.0159 237.911M10.0159 237.911L10.0224 238.01L10.0143 237.911L10.0151 237.911C9.73338 237.929 9.42396 237.941 9.09776 237.953C8.37935 237.98 7.57953 238.01 6.81451 238.121C5.70043 238.283 4.62582 238.621 3.94339 239.396L3.94167 239.398C3.54734 239.871 3.45582 240.405 3.55736 240.95C3.65807 241.492 3.9484 242.044 4.31691 242.569C4.94975 243.47 5.83126 244.312 6.44024 244.893C6.54014 244.988 6.6327 245.077 6.71563 245.157L6.71582 245.157C8.37392 246.758 10.3126 248.04 12.4349 248.939C12.4357 248.939 12.4365 248.939 12.4373 248.94L12.4763 248.848L10.0159 237.911Z" fill="#5D7049" stroke="white" stroke-width="0.2"/>
<path d="M27.6576 255.411L27.6543 255.41C20.3636 252.548 13.2488 249.256 6.34717 245.553L6.26286 245.513C6.2371 245.501 6.20751 245.499 6.18059 245.509C6.15366 245.518 6.13161 245.538 6.11932 245.564C6.10702 245.589 6.10545 245.619 6.11498 245.646C6.1245 245.673 6.14431 245.695 6.17007 245.707L6.18008 245.712L6.18879 245.719C7.7578 246.952 9.40931 248.078 11.1317 249.086C25.1501 257.057 40.617 262.153 56.6281 264.075C72.7854 265.938 89.1409 265.073 105.011 261.515C122.554 257.585 139.287 250.656 154.472 241.034C170.799 230.618 185.353 217.655 197.579 202.636L197.58 202.635C203.795 195.061 209.438 187.034 214.462 178.621L214.463 178.621C215.676 176.6 216.873 174.5 218.013 172.408L218.013 172.408L218.017 172.403C219.202 170.543 220.118 168.525 220.739 166.409C221.088 164.761 220.847 162.852 220.024 161.363C219.203 159.877 217.806 158.815 215.839 158.836L215.839 158.836L215.836 158.836C215.479 158.83 215.21 158.966 215.026 159.173C214.84 159.381 214.737 159.664 214.725 159.951C214.713 160.238 214.792 160.521 214.961 160.729C215.128 160.935 215.386 161.075 215.751 161.074C216.805 161.033 217.571 161.592 218.055 162.373C218.538 163.151 218.745 164.154 218.688 165.03L218.689 165.031L218.686 165.043C218.279 167.171 217.446 169.195 216.237 170.993C215.124 173.027 213.989 175.034 212.802 176.999C210.407 181.05 207.865 185.013 205.176 188.889C199.824 196.604 193.911 203.914 187.486 210.762C174.827 224.383 160.048 235.867 143.721 244.768L143.72 244.768C129.009 252.692 113.093 258.137 96.6108 260.885L96.6107 260.885C81.2557 263.419 65.5942 263.48 50.2198 261.067C42.5394 259.888 34.9859 257.995 27.6576 255.411Z" fill="#5D7049" stroke="white" stroke-width="0.2"/>
<path d="M210.264 156.22L210.248 156.18C208.224 151.096 208.955 145.315 210.517 140.158L210.264 156.22ZM210.264 156.22L210.26 156.228M210.264 156.22L210.26 156.228M210.26 156.228C210.278 156.253 210.298 156.266 210.317 156.272C210.346 156.283 210.382 156.282 210.419 156.267C210.496 156.237 210.551 156.161 210.539 156.074C209.539 150.609 209.965 144.979 211.777 139.727C212.671 137.075 213.841 134.561 215.061 132.076C215.344 131.499 215.63 130.924 215.916 130.348C216.862 128.445 217.807 126.544 218.651 124.591L218.651 124.591C218.684 124.515 218.677 124.456 218.653 124.41C218.627 124.362 218.578 124.32 218.514 124.294C218.378 124.238 218.245 124.274 218.199 124.371L218.195 124.379L218.191 124.385C214.824 129.209 212.235 134.531 210.517 140.158L210.26 156.228Z" fill="#5D7049" stroke="white" stroke-width="0.2"/>
<path d="M216.364 129.39C210.159 136.013 206.365 144.531 205.591 153.573C205.588 153.625 205.603 153.66 205.623 153.683C205.645 153.708 205.678 153.727 205.719 153.733C205.799 153.747 205.889 153.714 205.934 153.63C206.821 149.239 208.157 144.951 209.921 140.833L209.921 140.833L209.923 140.83C211.797 136.88 214.059 133.126 216.675 129.624L216.676 129.623C216.706 129.583 216.711 129.543 216.702 129.506C216.692 129.466 216.665 129.425 216.624 129.392C216.54 129.325 216.436 129.318 216.364 129.39Z" fill="#5D7049" stroke="white" stroke-width="0.2"/>
<path d="M199.742 147.998L199.743 147.999L199.736 148.005C198.928 148.777 198.231 149.656 197.664 150.618C197.663 150.628 197.663 150.644 197.668 150.666C197.674 150.693 197.686 150.719 197.701 150.74C197.716 150.761 197.73 150.769 197.739 150.772C197.745 150.773 197.757 150.775 197.779 150.761C198.704 150.16 199.531 149.419 200.231 148.566L200.23 148.565L200.236 148.559C201.112 147.651 201.98 146.722 202.835 145.785L202.835 145.785C204.417 144.059 206.025 142.21 207.595 140.405L207.72 140.261L207.72 140.261C210.915 136.643 213.899 132.765 216.725 128.81C216.738 128.78 216.742 128.747 216.736 128.716C216.729 128.682 216.71 128.651 216.684 128.628C216.658 128.606 216.624 128.593 216.59 128.591C216.559 128.59 216.528 128.598 216.501 128.614C215.95 129.253 215.398 129.89 214.848 130.527C212.202 133.585 209.566 136.633 206.917 139.759L206.917 139.759C205.385 141.559 203.838 143.352 202.268 145.117L202.268 145.118C201.407 146.069 200.575 147.033 199.742 147.998Z" fill="#5D7049" stroke="white" stroke-width="0.2"/>
<path d="M193.621 145.68L193.591 145.648L193.594 145.605L193.597 145.567C193.506 145.497 193.379 145.506 193.276 145.575C193.163 145.651 193.113 145.774 193.18 145.896C193.585 146.612 194.108 146.97 194.687 147.092C195.271 147.215 195.924 147.1 196.587 146.844C197.915 146.332 199.244 145.27 200.053 144.535L200.054 144.535C203.404 141.519 206.617 138.312 209.691 134.986L209.692 134.985C220.567 123.528 229.476 110.354 236.06 95.996C237.657 92.3977 239.056 88.7147 240.251 84.9636L240.25 84.9635L240.252 84.9601C241.521 81.4258 242.42 77.7696 242.935 74.05L242.935 74.0499L242.936 74.0465C243.211 72.4671 243.117 70.8456 242.662 69.3083C242.207 67.7714 241.403 66.3602 240.313 65.1849C239.417 64.2498 238.262 63.6033 236.996 63.3279C235.731 63.0527 234.412 63.1608 233.209 63.6386C232.994 63.7337 232.884 63.8782 232.843 64.0314C232.801 64.1882 232.83 64.3658 232.914 64.5257C233.085 64.8468 233.462 65.0644 233.879 64.8911C235.554 64.1761 237.209 64.6219 238.524 65.6188C239.838 66.6143 240.824 68.1656 241.174 69.6898C241.946 73.0389 240.955 76.6069 240.052 79.8602C239.976 80.1335 239.901 80.4046 239.828 80.6731L239.828 80.6731L239.827 80.6745C235.964 93.9893 229.818 106.532 221.663 117.744C217.644 123.38 213.277 128.76 208.586 133.851C206.224 136.424 203.79 138.963 201.312 141.445L201.311 141.445C201.139 141.615 200.911 141.862 200.641 142.155C199.924 142.931 198.907 144.032 197.841 144.894C197.106 145.489 196.335 145.981 195.608 146.179C194.875 146.378 194.178 146.279 193.621 145.68Z" fill="#5D7049" stroke="white" stroke-width="0.2"/>
<path d="M199.46 140.751L199.46 140.752L199.45 140.758C197.412 141.947 195.44 143.245 193.541 144.646L193.517 144.695L193.51 144.711L193.498 144.723C193.46 144.761 193.447 144.794 193.444 144.818C193.441 144.843 193.448 144.867 193.463 144.89C193.494 144.938 193.562 144.973 193.637 144.964C195.901 144.407 197.992 143.299 199.725 141.74L199.724 141.74L199.733 141.734C201.676 140.323 203.507 138.765 205.209 137.072C208.637 133.601 211.822 129.899 214.745 125.993L214.746 125.992C217.788 122.034 220.591 117.897 223.138 113.603L223.138 113.603L223.139 113.602C225.686 109.46 227.881 105.111 229.702 100.602C229.713 100.548 229.706 100.492 229.682 100.443C229.658 100.391 229.616 100.349 229.564 100.324C229.512 100.3 229.453 100.293 229.398 100.307C229.344 100.319 229.296 100.349 229.262 100.391C228.68 101.461 228.161 102.54 227.643 103.619C227.625 103.657 227.607 103.694 227.589 103.732C227.088 104.776 226.587 105.821 226.032 106.858C224.91 108.953 223.699 110.954 222.473 112.977L222.385 113.122C222.385 113.123 222.385 113.123 222.385 113.123C219.943 117.19 217.289 121.126 214.433 124.914C211.521 128.83 208.341 132.538 204.915 136.013L204.915 136.014C203.209 137.718 201.386 139.301 199.46 140.751Z" fill="#5D7049" stroke="white" stroke-width="0.2"/>
<path d="M207.087 140.629L207.087 140.629L207.082 140.635C204.337 143.814 201.98 147.309 200.061 151.045L199.972 150.999L200.057 151.052C200.009 151.131 199.993 151.226 200.015 151.316C200.036 151.406 200.093 151.484 200.172 151.533C200.25 151.582 200.346 151.597 200.436 151.576C200.526 151.554 200.604 151.498 200.653 151.419L200.653 151.419L200.656 151.414C201.231 150.583 201.798 149.747 202.364 148.911C204.043 146.433 205.72 143.959 207.614 141.63C208.882 140.071 210.266 138.621 211.648 137.177L211.714 137.109C213.074 135.687 214.431 134.269 215.677 132.752L215.677 132.752L215.677 132.752C215.749 132.666 215.747 132.523 215.684 132.419C215.654 132.369 215.616 132.339 215.577 132.328C215.543 132.318 215.494 132.32 215.431 132.362C212.256 134.69 209.444 137.476 207.087 140.629Z" fill="#5D7049" stroke="white" stroke-width="0.2"/>
<path d="M209.133 138.979C206.526 143.043 204.322 147.353 202.554 151.846L202.615 151.858L202.576 151.967C202.558 152.016 202.565 152.055 202.581 152.085C202.599 152.118 202.631 152.148 202.673 152.166C202.761 152.205 202.837 152.18 202.867 152.117L202.867 152.117L202.874 152.106C205.522 148.027 207.762 143.696 209.561 139.178C209.586 139.112 209.577 139.058 209.553 139.015C209.528 138.968 209.481 138.928 209.422 138.902C209.363 138.877 209.3 138.87 209.249 138.881C209.201 138.892 209.162 138.919 209.139 138.968L209.139 138.968L209.133 138.979Z" fill="#5D7049" stroke="white" stroke-width="0.2"/>
<path d="M195.486 151.281C197.592 151.822 199.796 151.858 201.919 151.388L201.918 151.381C201.983 151.367 202.041 151.33 202.08 151.276C202.12 151.223 202.138 151.156 202.131 151.09C202.123 151.024 202.092 150.963 202.042 150.919C201.993 150.875 201.928 150.85 201.862 150.851C197.751 150.906 193.698 149.884 190.106 147.886C189.985 147.822 189.845 147.863 189.763 147.955C189.722 148 189.7 148.051 189.7 148.1C189.699 148.146 189.717 148.2 189.774 148.254C191.412 149.7 193.369 150.737 195.486 151.281Z" fill="#5D7049" stroke="white" stroke-width="0.2"/>
<path d="M212.675 157.019L212.718 156.928L212.67 157.016C212.587 156.971 212.483 156.999 212.42 157.071C212.39 157.105 212.375 157.143 212.375 157.177C212.375 157.208 212.388 157.247 212.435 157.288L212.435 157.288L212.437 157.29C213.438 158.23 214.228 159.373 214.754 160.642C215.279 161.911 215.529 163.277 215.487 164.649L215.487 164.649L215.487 164.653C215.484 164.694 215.495 164.716 215.507 164.728C215.519 164.742 215.54 164.753 215.568 164.756C215.626 164.763 215.693 164.734 215.725 164.67C216.28 163.246 216.275 161.665 215.709 160.245C215.144 158.824 214.059 157.671 212.675 157.019Z" fill="#5D7049" stroke="white" stroke-width="0.2"/>
<path d="M93.0502 256.013C77.1073 261.018 59.9851 260.82 44.1622 255.447C44.1379 255.424 44.1216 255.394 44.1156 255.361C44.1095 255.328 44.1141 255.293 44.1286 255.263C44.1431 255.233 44.1668 255.208 44.1963 255.192C44.2258 255.176 44.2597 255.169 44.293 255.174C60.2307 259.275 76.9383 259.345 92.9101 255.38C93.3725 255.264 93.5063 255.948 93.0728 256.077L93.0502 256.013Z" fill="#5D7049"/>
<path d="M116.67 243.326C112.41 244.832 108.251 246.757 103.986 248.349C100.207 249.738 96.2395 250.546 92.2187 250.749C87.8953 251.004 83.6128 251.731 79.4473 252.916C74.9645 254.313 70.4015 255.438 65.7831 256.285C65.441 256.335 65.1889 255.825 65.5578 255.682C69.7467 254.141 74.0254 252.856 78.3703 251.835C82.3546 250.678 86.4471 249.934 90.5835 249.614C94.826 249.507 99.0312 248.791 103.07 247.487C107.515 245.963 112.005 244.532 116.405 242.916C116.668 242.811 116.895 243.15 116.612 243.298L116.67 243.326Z" fill="#5D7049"/>
<path d="M65.165 252.538C73.0336 249.132 81.4069 247.038 89.9525 246.338C90.1593 246.313 90.2578 246.626 90.0298 246.658C81.6797 248.28 73.4282 250.374 65.315 252.929C65.0876 252.997 64.9596 252.635 65.165 252.538Z" fill="#5D7049"/>
<path d="M183.814 154.148L183.864 154.101L183.878 154.107C183.888 154.092 183.895 154.074 183.899 154.055C183.906 154.019 183.898 153.981 183.877 153.951C183.856 153.92 183.823 153.899 183.787 153.893C183.751 153.886 183.713 153.894 183.682 153.915L183.676 153.919L183.669 153.923C181.571 154.931 180.101 156.746 178.989 158.834C177.882 160.913 177.136 163.252 176.478 165.313L176.47 165.34L176.469 165.34C176.449 165.405 176.428 165.47 176.407 165.536C174.78 170.627 173.099 175.886 168.321 178.886C168.276 178.918 168.259 178.984 168.279 179.044C168.289 179.072 168.304 179.09 168.318 179.098C168.33 179.105 168.349 179.111 168.383 179.099C172.848 177.484 175.134 172.68 176.544 168.431L176.544 168.431C176.812 167.632 177.061 166.824 177.312 166.014C177.838 164.311 178.367 162.602 179.069 160.955L179.069 160.954C180.179 158.391 181.793 156.077 183.814 154.148Z" fill="#5D7049" stroke="white" stroke-width="0.2"/>
<path d="M172.501 168.462C172.052 169.909 171.45 171.306 170.707 172.627C170.624 172.789 170.685 172.979 170.816 173.094C170.881 173.15 170.956 173.181 171.029 173.182C171.098 173.183 171.175 173.157 171.248 173.078C171.807 172.464 172.239 171.747 172.52 170.966C172.8 170.185 172.923 169.356 172.882 168.527C172.874 168.408 172.801 168.343 172.726 168.329C172.652 168.316 172.559 168.346 172.501 168.462Z" fill="#5D7049" stroke="white" stroke-width="0.2"/>
<path d="M176.712 212.903L176.712 212.903L176.705 212.91C176.703 212.912 176.695 212.921 176.701 212.953C176.706 212.984 176.725 213.023 176.754 213.058C176.783 213.094 176.816 213.117 176.845 213.126C176.871 213.134 176.895 213.132 176.919 213.115C178.882 211.706 180.659 210.056 182.209 208.204C182.23 208.172 182.24 208.135 182.237 208.097C182.234 208.058 182.217 208.021 182.19 207.992C182.164 207.964 182.128 207.945 182.089 207.94C182.051 207.935 182.013 207.942 181.98 207.961C180.028 209.386 178.258 211.046 176.712 212.903Z" fill="#5D7049" stroke="white" stroke-width="0.2"/>
<path d="M174.158 213.103L174.226 213.176L174.168 213.094C174.208 213.066 174.223 213.031 174.224 212.991C174.225 212.948 174.208 212.897 174.175 212.85C174.142 212.804 174.098 212.77 174.055 212.756C174.014 212.743 173.972 212.745 173.929 212.773L173.929 212.773L173.92 212.778C172.505 213.499 171.211 214.436 170.085 215.555C170.075 215.577 170.071 215.602 170.072 215.626C170.074 215.655 170.084 215.683 170.1 215.707C170.117 215.73 170.14 215.749 170.167 215.76C170.189 215.77 170.214 215.774 170.238 215.772C171.673 215.087 172.995 214.187 174.158 213.103Z" fill="#5D7049" stroke="white" stroke-width="0.2"/>
<path d="M121.514 227.105C121.014 227.149 120.515 227.194 120.016 227.275C119.517 227.355 119.195 226.882 119.474 226.52C120.431 225.256 121.68 224.243 123.114 223.568C123.232 223.53 123.36 223.535 123.475 223.583C123.589 223.63 123.683 223.716 123.741 223.826C123.798 223.936 123.815 224.062 123.789 224.183C123.762 224.304 123.693 224.412 123.595 224.488C122.355 225.207 121.227 226.107 120.25 227.156L119.927 226.276C120.464 226.338 121.001 226.399 121.537 226.426C121.627 226.429 121.712 226.467 121.774 226.533C121.835 226.599 121.868 226.687 121.865 226.777C121.862 226.867 121.823 226.952 121.757 227.014C121.691 227.075 121.604 227.108 121.514 227.105V227.105Z" fill="#5D7049"/>
<path d="M31.764 252.235L29.8663 251.205C29.7914 251.155 29.7298 251.088 29.6873 251.009C29.6447 250.93 29.6224 250.842 29.6223 250.752C29.6324 250.362 29.7414 249.981 29.939 249.645C30.1367 249.309 30.4164 249.029 30.7521 248.831C30.838 248.785 30.935 248.764 31.0322 248.769C31.1294 248.775 31.2231 248.808 31.3029 248.864C31.7497 249.077 32.127 249.399 32.5463 249.67C32.9273 249.882 33.2684 250.159 33.5543 250.488C33.587 250.55 33.6029 250.619 33.6002 250.689C33.5975 250.759 33.5765 250.827 33.5392 250.887C33.5019 250.946 33.4496 250.994 33.3877 251.027C33.3257 251.06 33.2563 251.076 33.1863 251.073C32.7631 250.969 32.3657 250.779 32.0186 250.515L30.7263 249.774L31.2839 249.793C30.9567 250.024 30.7284 250.37 30.6442 250.762L30.4146 250.316L32.1941 251.52C32.2851 251.575 32.3504 251.664 32.3757 251.767C32.401 251.871 32.3842 251.98 32.329 252.071C32.2738 252.162 32.1848 252.227 32.0814 252.253C31.978 252.278 31.8687 252.261 31.7777 252.206L31.764 252.235Z" fill="#5D7049"/>
<path d="M59.9016 238.872C59.6369 239.084 59.321 239.223 58.9859 239.274C58.6507 239.325 58.308 239.287 57.9921 239.164C57.7759 239.061 57.6623 238.706 57.9461 238.593C58.2298 238.481 58.8317 238.184 59.2783 237.991C59.7249 237.797 60.0638 237.569 60.4936 237.633C60.9235 237.697 60.8828 237.819 60.7157 238.057C60.4181 238.367 60.033 238.578 59.612 238.663L58.1493 239.169L58.2461 238.595C58.4553 238.695 58.6875 238.737 58.9184 238.716C59.1493 238.696 59.3704 238.614 59.5587 238.479C59.8336 238.274 60.2335 238.659 59.9448 238.893L59.9016 238.872Z" fill="#5D7049"/>
<path d="M13.5577 244.62C12.5524 245.131 11.905 243.706 12.3481 242.927C12.5034 242.71 12.7177 242.543 12.9655 242.444C13.2133 242.346 13.4841 242.321 13.7457 242.373C14.2826 242.435 15.1091 242.705 15.2486 243.303C15.2728 243.436 15.2452 243.573 15.1715 243.686C15.0978 243.799 14.9835 243.879 14.8523 243.91C14.3192 244.063 13.9298 243.47 13.3741 243.558C13.3798 243.611 13.3903 243.664 13.4055 243.715C13.4055 243.715 13.4055 243.715 13.4055 243.715C13.4055 243.715 13.2902 243.66 13.2181 243.626C13.7788 243.415 14.2359 244.2 13.6622 244.475L13.5577 244.62Z" fill="#5D7049"/>
</svg>
