<svg width="92" height="41" viewBox="0 0 92 41" fill="none" xmlns="http://www.w3.org/2000/svg">
<path d="M46.1066 0C44.1643 6.09311 40.6816 8.60401 40.9236 13.9813C41.2772 21.8388 50.9378 21.8008 51.2896 13.9813C51.5314 8.60596 48.0468 6.08717 46.1066 0Z" fill="#81935A"/>
<path d="M41.7133 5.24287C40.0366 6.84918 37.7953 8.24727 36.3782 10.1314C33.3182 14.1996 35.411 20.3892 42.0862 19.6627C40.4163 18.2419 39.7232 16.2036 39.6259 14.0397C39.4639 10.4408 40.8122 7.97822 42.2396 5.37104C44.0783 2.01271 43.2486 3.77215 41.7133 5.24287Z" fill="#81935A"/>
<path d="M55.8382 10.1311C54.42 8.2454 52.1828 6.85195 50.503 5.2426C48.9617 3.76602 48.1141 1.97465 49.9735 5.37077C51.4009 7.97794 52.7492 10.4405 52.5872 14.0395C52.4898 16.2039 51.7966 18.2416 50.1275 19.6622C56.8288 20.3934 58.8851 14.1823 55.8382 10.1311Z" fill="#81935A"/>
<path d="M12.7353 29.2308V40.7692H10.1883V33.2857L6.5257 38.6429H6.22823L2.56566 33.3022V40.7692H0V29.2308H2.64003L6.37696 34.6868L10.0953 29.2308H12.7353Z" fill="#303030"/>
<path d="M29.1784 39.2692C27.8646 40.4231 26.2657 41 24.3817 41C22.4978 41 20.8989 40.4231 19.5851 39.2692C18.2837 38.1044 17.6329 36.6813 17.6329 35C17.6329 33.3187 18.2837 31.9011 19.5851 30.7473C20.8989 29.5824 22.4978 29 24.3817 29C26.2657 29 27.8646 29.5824 29.1784 30.7473C30.4922 31.9011 31.1491 33.3187 31.1491 35C31.1491 36.6813 30.4922 38.1044 29.1784 39.2692ZM21.3885 37.7198C22.1941 38.4231 23.1919 38.7747 24.3817 38.7747C25.5716 38.7747 26.5694 38.4231 27.375 37.7198C28.1807 37.0055 28.5835 36.0989 28.5835 35C28.5835 33.9011 28.1807 32.9945 27.375 32.2802C26.5694 31.5659 25.5716 31.2088 24.3817 31.2088C23.1919 31.2088 22.1941 31.5659 21.3885 32.2802C20.5828 32.9945 20.18 33.9011 20.18 35C20.18 36.0989 20.5828 37.0055 21.3885 37.7198Z" fill="#303030"/>
<path d="M41.1885 29.2308C42.9733 29.2308 44.4607 29.7857 45.6505 30.8956C46.8528 32.0055 47.4539 33.3736 47.4539 35C47.4539 36.6264 46.8528 37.9945 45.6505 39.1044C44.4607 40.2143 42.9733 40.7692 41.1885 40.7692H36.02V29.2308H41.1885ZM41.1885 38.5934C42.3164 38.5934 43.2336 38.2637 43.9401 37.6044C44.6466 36.9341 44.9998 36.0659 44.9998 35C44.9998 33.9341 44.6466 33.0714 43.9401 32.4121C43.2336 31.7418 42.3164 31.4066 41.1885 31.4066H38.5857V38.5934H41.1885Z" fill="#303030"/>
<path d="M54.9072 38.5934H60.3917V40.7692H52.3415V29.2308H60.2988V31.4066H54.9072V33.8626H59.834V36.0055H54.9072V38.5934Z" fill="#303030"/>
<path d="M72.7975 29.2308H75.3632V40.7692H73.411L67.8335 33.7143V40.7692H65.2679V29.2308H67.22L72.7975 36.2692V29.2308Z" fill="#303030"/>
<path d="M89.2112 40.7692L88.4304 38.6923H83.2433L82.4624 40.7692H79.6923L84.2473 29.2308H87.4264L92 40.7692H89.2112ZM84.0613 36.5659H87.6309L85.8461 31.8516L84.0613 36.5659Z" fill="#303030"/>
</svg>
