<svg width="214" height="264" viewBox="0 0 214 264" fill="none" xmlns="http://www.w3.org/2000/svg">
<path d="M44.2808 36.7214C44.5114 38.2403 42.3415 38.9455 41.1481 38.7557C40.3598 38.5856 39.6468 38.1674 39.1138 37.5622C38.0424 36.4908 37.3507 35.6093 35.6961 36.0026C34.0416 36.3959 32.0887 37.4673 30.4206 36.0026C29.6081 35.2088 28.9302 34.2882 28.4134 33.2767C27.6268 31.9226 26.9116 30.5283 26.2706 29.0996L27.464 28.6792C27.9699 30.3549 29.0877 31.779 30.5952 32.6684C32.1028 33.5579 33.8898 33.8476 35.6012 33.4801C36.1626 33.2745 36.7752 33.2545 37.3489 33.4229C37.9226 33.5913 38.4271 33.9394 38.7883 34.4159C39.3307 35.1753 39.602 35.9348 40.47 36.4366C41.4413 36.9557 42.5577 37.137 43.6434 36.9519C43.7171 36.9374 43.7936 36.95 43.8587 36.9874C43.9239 37.0247 43.9734 37.0843 43.9982 37.1552C44.0229 37.2262 44.0212 37.3036 43.9934 37.3734C43.9656 37.4432 43.9136 37.5006 43.8469 37.5351C43.1124 37.9483 42.2678 38.1232 41.4297 38.0358C40.5916 37.9483 39.8013 37.6028 39.168 37.0469C38.4628 36.4501 37.8118 34.7413 36.9167 34.5786C35.938 34.6316 34.964 34.7494 34.0009 34.9312C32.2349 34.8944 30.5271 34.2923 29.1285 33.2134C27.7298 32.1346 26.714 30.6357 26.2299 28.9368C26.2025 28.7866 26.2299 28.6314 26.3073 28.4997C26.3846 28.3679 26.5067 28.2683 26.6513 28.219C26.7959 28.1697 26.9534 28.174 27.0951 28.2311C27.2368 28.2882 27.3533 28.3942 27.4234 28.53C28.2873 30.675 29.4027 32.7099 30.746 34.5922C32.2514 36.5044 34.1094 35.0126 35.9809 34.7413C36.6171 34.6553 37.2647 34.735 37.861 34.9726C38.4573 35.2101 38.9823 35.5976 39.385 36.0975C40.0088 36.7485 40.5784 37.5487 41.5549 37.6165C42.5313 37.6843 43.0331 36.8706 43.874 36.5451C43.9125 36.5254 43.9551 36.5148 43.9983 36.5141C44.0416 36.5133 44.0845 36.5224 44.1237 36.5407C44.163 36.559 44.1975 36.5861 44.2247 36.6197C44.2519 36.6534 44.2711 36.6928 44.2808 36.7349V36.7214Z" fill="#9AA97B"/>
<path d="M44.1725 37.2235C41.2838 37.0607 39.1682 34.3212 38.6257 31.6495C37.9883 28.4353 39.8734 22.997 36.2117 21.0577C34.6114 20.2168 32.9568 21.6815 31.2751 21.5188C29.5934 21.356 28.0067 20.0405 26.325 20.244C24.6434 20.4474 23.8025 22.441 22.4735 23.2683C21.9483 23.6557 21.3168 23.8726 20.6643 23.8896C20.0119 23.9066 19.3699 23.7228 18.8253 23.3632C18.2693 22.9428 18.5134 21.8714 19.2864 22.007C21.5377 22.3325 22.7447 19.9185 23.9788 18.4673C24.4112 17.8531 24.961 17.3307 25.5965 16.9303C26.232 16.5299 26.9406 16.2595 27.6812 16.1347C29.3222 16.0262 30.1631 17.179 31.3701 18.0469C32.8212 19.1048 34.53 17.5994 36.2117 18.2368C39.6835 19.593 39.8734 24.5702 40.5108 27.6081L41.2838 31.2969C41.329 32.3066 41.5588 33.2994 41.9619 34.2263C42.423 34.8366 43.1554 35.2299 43.5894 35.908C44.0265 36.5283 44.2372 37.28 44.1861 38.0372C44.1861 38.3355 43.7114 38.539 43.5216 38.2542C43.0876 37.6303 42.6943 36.898 42.1654 36.3555C41.6365 35.813 40.9177 35.5011 40.565 34.9179C40.2205 34.0232 40.0147 33.0811 39.9548 32.1242L39.3038 28.9643C38.9105 27.0249 38.5579 25.072 38.0968 23.1462C37.6357 21.2204 36.4016 18.8335 34.0282 19.5794C33.4768 19.838 32.8646 19.9394 32.2592 19.8724C31.6538 19.8054 31.0786 19.5726 30.597 19.1997C30.041 18.7793 29.5799 18.2097 28.9832 17.8435C28.5058 17.597 27.9607 17.5139 27.4315 17.607C26.9024 17.7001 26.4184 17.9642 26.0538 18.3588C23.8704 20.1897 22.6769 24.0006 19.1915 23.5259L19.6661 22.1697C21.3749 23.3903 23.0838 20.4881 24.2636 19.6337C24.7332 19.2773 25.2764 19.0304 25.8535 18.9107C26.4307 18.791 27.0273 18.8017 27.5999 18.942C29.4443 19.3489 30.909 20.5152 32.8755 19.9727C34.2317 19.5794 35.4387 19.1454 36.822 19.8913C39.5344 21.3153 39.9141 24.5838 39.792 27.2826C39.4554 29.3239 39.6755 31.4182 40.4294 33.3448C41.3683 34.8764 42.6976 36.1308 44.281 36.9794C44.3087 37.0023 44.3286 37.0331 44.3383 37.0677C44.3479 37.1023 44.3467 37.139 44.3349 37.1729C44.3231 37.2069 44.3013 37.2364 44.2723 37.2575C44.2432 37.2787 44.2084 37.2904 44.1725 37.2913V37.2235Z" fill="#9AA97B"/>
<path d="M40.2799 32.5582C40.5241 30.2255 42.9245 29.5881 44.8367 29.0185C45.5843 28.8883 46.2823 28.5569 46.8558 28.06C47.4292 27.563 47.8565 26.9191 48.0916 26.1976C48.2954 25.1821 48.6186 24.1943 49.0545 23.2547C49.2853 22.8609 49.6034 22.5253 49.9843 22.2737C50.3652 22.0221 50.7987 21.8613 51.2515 21.8036C51.6673 21.7942 52.0766 21.6977 52.4527 21.5201C52.8288 21.3426 53.1635 21.088 53.435 20.7729C53.7852 20.2631 54.038 19.6929 54.1809 19.0912C55.0624 15.6736 55.3472 12.0119 55.9032 8.52647C56.0253 7.72632 57.2595 7.78056 57.1916 8.60784C56.7034 12.8663 56.1338 17.1247 55.6049 21.3832C55.4693 22.5088 55.5235 24.204 54.4522 24.9364C53.8693 25.1975 53.2449 25.3536 52.6077 25.3975C52.0227 25.55 51.486 25.8486 51.0481 26.2655C49.3935 27.703 48.5256 29.9 46.7218 31.2156C45.9379 31.7941 44.9834 32.0947 44.0095 32.07C43.5755 32.07 43.3178 31.8258 43.0601 32.3005C42.9381 32.5446 43.2771 33.4261 43.3314 33.6567C43.5932 34.6233 43.9664 35.5563 44.4435 36.4369C44.9046 37.3184 43.6975 38.0508 43.0873 37.3862C42.5872 36.8919 42.247 36.2588 42.1108 35.5689C42.0803 35.3544 42.1324 35.1362 42.2566 34.9587C42.3809 34.7811 42.5679 34.6574 42.78 34.6126C42.992 34.5678 43.2131 34.6052 43.3986 34.7173C43.584 34.8294 43.72 35.0078 43.7789 35.2163C43.8019 35.4204 43.8653 35.6178 43.9654 35.7971C44.0656 35.9764 44.2004 36.134 44.3621 36.2606L43.0059 37.2099C42.1515 35.5689 39.7917 30.2391 43.4398 30.429C44.0073 30.5479 44.5957 30.5193 45.1489 30.346C45.7021 30.1726 46.2017 29.8604 46.5998 29.4389C47.4949 28.571 48.173 27.486 48.9867 26.5367C49.5974 25.7069 50.3789 25.0178 51.2786 24.516C51.7052 24.3115 52.1641 24.183 52.6348 24.1362C53.3807 24.0413 53.8147 24.1362 54.1131 23.309C54.2298 22.8656 54.298 22.4109 54.3165 21.9528C54.8319 17.5045 55.293 13.0561 55.8355 8.6214L57.1238 8.70277C56.5678 12.0119 56.1067 15.3481 55.4557 18.6437C55.2857 19.8133 54.8188 20.9199 54.0995 21.8578C53.2723 22.8207 52.35 22.8343 51.1973 23.1055C48.9053 23.6751 49.3936 27.3233 47.7526 28.8015C45.7183 30.6188 41.5276 29.778 40.5512 32.7752C40.5346 32.8173 40.5036 32.8521 40.4636 32.8733C40.4237 32.8945 40.3775 32.9008 40.3333 32.891C40.2892 32.8812 40.25 32.8559 40.2228 32.8198C40.1956 32.7836 40.1822 32.7389 40.185 32.6938L40.2799 32.5582Z" fill="#9AA97B"/>
<path d="M43.088 30.2797C41.6504 27.6487 42.9117 25.2347 43.6983 22.5901C44.3188 20.9034 44.285 19.0454 43.6034 17.3823C42.8353 15.8269 41.7604 14.4429 40.4434 13.3138C39.4805 12.4187 38.1921 11.6185 37.8666 10.2759C37.6768 9.43507 37.8666 8.52642 37.5547 7.72626C37.1516 7.0177 36.5411 6.44971 35.8053 6.09884C33.7574 4.87826 30.611 3.68481 31.0721 0.674069C31.0819 0.517061 31.1429 0.367599 31.2458 0.248609C31.3487 0.12962 31.4878 0.0476747 31.6418 0.0153441C31.7957 -0.0169864 31.956 0.00208307 32.0981 0.0696274C32.2402 0.137172 32.3562 0.249461 32.4283 0.389269C33.7845 3.10165 37.9209 2.23369 40.023 4.14592C41.1486 5.17662 40.2942 6.50569 40.4298 7.80764C40.711 9.36988 41.3672 10.8405 42.3421 12.0932C44.2272 14.9141 46.058 17.518 46.3022 20.9627C46.4422 24.343 45.6141 27.693 43.9153 30.6188C43.8437 30.7247 43.7457 30.81 43.631 30.8662C43.5163 30.9225 43.3888 30.9478 43.2613 30.9396C43.1338 30.9314 43.0106 30.8899 42.9041 30.8193C42.7976 30.7488 42.7113 30.6516 42.654 30.5374C42.3037 29.8002 42.1052 29.0001 42.0703 28.1847C42.0353 27.3693 42.1647 26.5552 42.4506 25.7907C42.7218 25.1669 43.8068 25.2889 43.6711 26.0349C43.4298 27.3181 43.5328 28.6423 43.9695 29.8729L42.6947 29.7915C44.5247 26.6976 45.211 23.0596 44.634 19.5116C43.9559 16.311 41.6233 14.019 40.0908 11.2388C39.44 10.1433 39.0459 8.91455 38.9381 7.64489C38.9381 7.03461 39.1144 6.47857 39.1144 5.88184C39.1144 4.90539 38.1243 4.71552 37.3649 4.45784C35.0593 3.69838 32.3605 3.4407 31.1535 1.04024L32.5097 0.755441C32.0486 3.68481 36.8495 4.45784 38.3277 6.2887C38.6728 6.70748 38.9185 7.19896 39.0465 7.72626C39.2771 8.66204 38.9516 9.67918 39.5212 10.52C40.4945 11.6327 41.5362 12.6835 42.6404 13.6664C43.5873 14.6023 44.3117 15.739 44.7601 16.9925C45.2084 18.2461 45.3693 19.5844 45.2308 20.9084C44.7561 23.7836 42.2607 27.1198 43.427 30.0763C43.441 30.1199 43.4386 30.1671 43.4205 30.2092C43.4023 30.2513 43.3696 30.2853 43.3283 30.3052C43.287 30.325 43.2399 30.3292 43.1958 30.3171C43.1516 30.3049 43.1133 30.2772 43.088 30.239V30.2797Z" fill="#9AA97B"/>
<path d="M53.8414 30.4561C53.7465 29.2219 53.0684 27.9335 53.3532 26.6723C53.5042 26.1845 53.7741 25.742 54.1387 25.3845C54.5033 25.027 54.9511 24.7658 55.4417 24.6244C56.6882 24.2691 57.915 23.8481 59.117 23.3632C61.0157 22.4003 61.3954 20.9898 60.8665 18.9556C60.4352 17.7803 60.3596 16.5041 60.649 15.2861C60.9384 14.0682 61.5801 12.9624 62.4939 12.1068C63.7009 11.049 66.6574 9.74702 65.3012 7.71273C64.8167 7.11122 64.2713 6.56131 63.6738 6.07174L61.4904 3.99677C61.0157 3.53567 61.6938 2.92538 62.1956 3.18306C64.7316 4.53925 67.5118 6.22092 67.6203 9.42154C67.7288 12.6221 64.5689 13.0561 63.0364 15.1853C61.6802 17.0298 62.9008 19.1454 63.4839 21.017C63.6769 21.5022 63.693 22.0399 63.5293 22.5358C63.3657 23.0317 63.0327 23.4543 62.5889 23.7294C60.1884 25.3839 54.0584 25.628 55.1705 29.995C55.3739 30.7544 54.2483 30.9443 54.0042 30.2391C53.2176 27.8115 55.1298 25.6145 57.2183 24.6516C58.6683 24.1117 60.1492 23.6588 61.6531 23.2954C64.0942 22.5223 62.0057 19.2268 61.8429 17.5044C61.5581 14.5886 63.5382 13.6935 65.464 12.0797C65.8313 11.7891 66.136 11.4272 66.3598 11.0157C66.5836 10.6043 66.7218 10.1518 66.7662 9.68556C66.8105 9.21929 66.7601 8.74888 66.6179 8.30263C66.4757 7.85637 66.2446 7.44351 65.9387 7.08889C64.7288 5.75884 63.2367 4.71625 61.5717 4.03746L62.3176 3.27799C63.6842 4.39391 64.9754 5.59903 66.1828 6.88546C66.5593 7.30995 66.7932 7.84185 66.8516 8.40628C66.91 8.97071 66.7899 9.53923 66.5082 10.0318C65.8437 11.388 64.5147 11.9034 63.4297 12.7442C62.659 13.3487 62.0799 14.1635 61.7622 15.09C61.4445 16.0166 61.4019 17.0153 61.6395 17.9655C62.1483 19.2651 62.2056 20.698 61.8023 22.0341C61.3055 22.9747 60.5013 23.7166 59.5239 24.1362C58.3304 24.7329 57.0285 24.9499 55.7943 25.4246C53.3125 26.3739 54.6958 28.4353 54.5873 30.3611C54.5873 30.7815 53.8685 30.8494 53.8414 30.3611V30.4561Z" fill="#9AA97B"/>
<path d="M46.1795 36.0705C45.4065 34.5244 45.3115 31.5137 46.505 30.1032C47.0881 29.398 47.8612 29.8049 48.6613 29.7371C50.8041 29.5201 51.2923 27.635 50.994 25.8177C50.9752 25.7184 50.9927 25.6158 51.0434 25.5284C51.0941 25.4411 51.1745 25.3749 51.27 25.3419C51.3655 25.309 51.4696 25.3116 51.5633 25.3491C51.6571 25.3867 51.7342 25.4567 51.7806 25.5464C52.1687 26.3522 52.2361 27.2753 51.9692 28.1289C51.7023 28.9825 51.121 29.7028 50.343 30.1439C49.9786 30.3603 49.5793 30.5117 49.1631 30.5915C48.7698 30.6728 48.2545 30.5101 47.9019 30.5915C45.8676 31.1475 46.6135 34.3481 46.8169 35.8264C46.8342 35.9075 46.8211 35.9922 46.7801 36.0643C46.7391 36.1365 46.6731 36.1911 46.5945 36.2178C46.516 36.2446 46.4304 36.2416 46.3539 36.2094C46.2774 36.1773 46.2154 36.1182 46.1795 36.0434V36.0705Z" fill="#9AA97B"/>
<path d="M46.6813 35.5012C46.271 33.8586 46.3321 32.1335 46.8576 30.524C46.8857 30.443 46.9341 30.3705 46.9982 30.3135C47.0623 30.2566 47.14 30.217 47.2238 30.1985C48.363 30.0765 50.2345 30.9444 51.0753 29.9408C51.4362 29.3083 51.6755 28.6137 51.7806 27.893C51.9976 27.12 52.2281 26.3469 52.418 25.5739C52.418 25.3976 52.7435 25.4925 52.6892 25.6688C52.4044 26.6995 52.1467 27.7438 51.8891 28.7745C51.8112 29.4663 51.5944 30.1351 51.2517 30.741C50.2481 31.9344 48.6478 30.958 47.4137 31.1479L47.7934 30.7003C47.5221 32.2871 47.5899 33.8738 47.3865 35.4605C47.3865 35.5541 47.3494 35.6437 47.2832 35.7099C47.2171 35.776 47.1274 35.8132 47.0339 35.8132C46.9404 35.8132 46.8507 35.776 46.7846 35.7099C46.7184 35.6437 46.6813 35.5541 46.6813 35.4605V35.5012Z" fill="#9AA97B"/>
<path d="M53.5708 19.2132C53.5256 18.3126 53.2703 17.4352 52.8252 16.651C52.3801 15.8668 51.7576 15.1976 51.0076 14.6971C49.8694 13.708 48.8417 12.5985 47.9426 11.388C46.2403 9.00846 44.9984 6.33137 44.2809 3.49496H45.2709C45.1039 5.08207 45.2002 6.68587 45.5557 8.24163C46.1802 9.74835 46.9381 11.1962 47.8205 12.5679C47.8282 12.5882 47.8295 12.6104 47.8244 12.6315C47.8193 12.6526 47.808 12.6717 47.7919 12.6863C47.7759 12.7009 47.7558 12.7103 47.7343 12.7134C47.7128 12.7165 47.6909 12.713 47.6714 12.7035C46.5035 11.6486 45.6572 10.2853 45.2302 8.77054C44.5231 7.05251 44.1947 5.20222 44.2673 3.34578C44.2938 3.23258 44.3578 3.13166 44.4489 3.05942C44.54 2.98719 44.6529 2.94788 44.7691 2.94788C44.8854 2.94788 44.9982 2.98719 45.0893 3.05942C45.1804 3.13166 45.2444 3.23258 45.2709 3.34578C46.2933 6.65424 48.0399 9.69338 50.3838 12.2424C51.5831 13.2833 52.6986 14.4169 53.72 15.6329C54.3069 16.7626 54.5069 18.0537 54.2896 19.3082C54.2733 19.3915 54.2286 19.4666 54.163 19.5206C54.0974 19.5746 54.0151 19.6042 53.9302 19.6042C53.8453 19.6042 53.763 19.5746 53.6974 19.5206C53.6318 19.4666 53.5871 19.3915 53.5708 19.3082V19.2132Z" fill="#9AA97B"/>
<path d="M48.9466 13.802C50.2053 14.5213 51.2745 15.5301 52.0658 16.7449C52.9415 17.9308 53.4592 19.3426 53.5576 20.8135C53.5337 20.9068 53.4794 20.9896 53.4033 21.0487C53.3272 21.1077 53.2336 21.1398 53.1372 21.1398C53.0408 21.1398 52.9472 21.1077 52.8711 21.0487C52.795 20.9896 52.7407 20.9068 52.7168 20.8135C52.4967 19.529 52.1327 18.2734 51.6318 17.0704C50.9338 15.8093 49.9881 14.7022 48.8516 13.8155C48.7703 13.8155 48.8516 13.6257 48.9466 13.6799V13.802Z" fill="#9AA97B"/>
<path d="M58.3849 28.5845C57.3267 26.5895 56.9233 24.3119 57.2321 22.0748C57.3286 19.6873 58.1049 17.3771 59.4698 15.4159C59.5174 15.3524 59.5859 15.3076 59.6632 15.2893C59.7404 15.2711 59.8216 15.2806 59.8927 15.3161C59.9637 15.3516 60.02 15.4109 60.0517 15.4837C60.0835 15.5564 60.0888 15.638 60.0665 15.7143C59.2342 17.7757 58.6735 19.9366 58.3984 22.1426C58.29 23.2702 58.29 24.4055 58.3984 25.5331C58.5204 26.496 58.8053 27.4453 58.8324 28.4082C58.8251 28.4628 58.8028 28.5143 58.7681 28.557C58.7334 28.5997 58.6875 28.632 58.6355 28.6502C58.5836 28.6685 58.5276 28.672 58.4738 28.6604C58.42 28.6488 58.3704 28.6225 58.3306 28.5845H58.3849Z" fill="#9AA97B"/>
<path d="M43.5357 36.342C43.4407 35.8673 43.5357 35.3926 43.3865 34.9858C43.3663 34.8816 43.3877 34.7737 43.4459 34.685C43.5042 34.5963 43.5948 34.5339 43.6984 34.5111C44.1731 34.4433 44.6342 34.389 45.0546 34.3619C45.241 34.3151 45.4358 34.3116 45.6238 34.3515C45.8118 34.3915 45.9882 34.4739 46.1396 34.5925C46.1693 34.6288 46.1855 34.6743 46.1855 34.7213C46.1855 34.7683 46.1693 34.8138 46.1396 34.8501C46.0199 34.9602 45.8782 35.0437 45.724 35.0951C45.5697 35.1465 45.4063 35.1647 45.2445 35.1485C44.7584 35.1722 44.274 35.222 43.7933 35.2977L44.0781 34.7281C44.212 35.0099 44.2814 35.318 44.2814 35.63C44.2814 35.9419 44.212 36.25 44.0781 36.5318C44.0396 36.5893 43.985 36.6341 43.9211 36.6607C43.8573 36.6873 43.787 36.6946 43.7191 36.6816C43.6511 36.6686 43.5885 36.6359 43.539 36.5875C43.4895 36.5392 43.4553 36.4774 43.4407 36.4098L43.5357 36.342Z" fill="#9AA97B"/>
<path d="M47.1021 34.4566C47.0236 34.1666 47.0436 33.8588 47.159 33.5814C47.2744 33.3041 47.4785 33.0729 47.7395 32.9241C48.1289 32.7158 48.5323 32.5346 48.9465 32.3816C49.6653 32.0019 49.8823 31.5136 50.3027 30.9169C50.7873 30.3344 51.4249 29.8988 52.1438 29.6592C52.8626 29.4196 53.6341 29.3855 54.3713 29.5607C54.4192 29.5774 54.4606 29.6085 54.49 29.6499C54.5194 29.6912 54.5352 29.7406 54.5352 29.7913C54.5352 29.842 54.5194 29.8914 54.49 29.9327C54.4606 29.974 54.4192 30.0052 54.3713 30.0218C53.6039 30.0129 52.8441 30.1751 52.1471 30.4965C51.6041 30.8864 51.1432 31.3795 50.7909 31.9476C50.5575 32.3859 50.2284 32.7659 49.8281 33.0597C49.0279 33.5479 47.7531 33.3852 47.4411 34.5108C47.4264 34.5492 47.4003 34.5822 47.3664 34.6055C47.3325 34.6288 47.2924 34.6412 47.2513 34.6412C47.2102 34.6412 47.17 34.6288 47.1361 34.6055C47.1022 34.5822 47.0762 34.5492 47.0614 34.5108L47.1021 34.4566Z" fill="#9AA97B"/>
<path d="M55.1849 30.049C55.0659 29.9469 54.9729 29.8179 54.9135 29.6728C54.8541 29.5276 54.83 29.3704 54.8432 29.2142C54.8565 29.0579 54.9067 28.907 54.9897 28.7739C55.0727 28.6408 55.1861 28.5294 55.3206 28.4487C55.7579 28.2855 56.2394 28.2855 56.6768 28.4487C57.152 28.5007 57.6326 28.4778 58.1008 28.3809C58.157 28.3699 58.2152 28.376 58.2679 28.3986C58.3205 28.4212 58.3652 28.4591 58.3959 28.5075C58.4267 28.5558 58.4421 28.6123 58.4403 28.6695C58.4384 28.7268 58.4194 28.7822 58.3856 28.8284C58.2699 29.0383 58.1041 29.2162 57.903 29.3464C57.7018 29.4765 57.4716 29.5548 57.2328 29.5743C56.9552 29.5923 56.6765 29.5694 56.4055 29.5065C56.2745 29.499 56.1432 29.499 56.0122 29.5065C56.0122 29.5065 55.4833 29.5065 55.646 29.6286C55.8088 29.7507 55.5104 30.4016 55.1849 30.1711V30.049Z" fill="#9AA97B"/>
<path d="M35.4115 53.4571C34.218 55.939 33.228 58.5428 32.1566 61.0789C31.0852 63.615 30.1087 66.0697 29.1323 68.5787C27.1251 73.7729 25.0637 78.9671 23.1922 84.202C19.2282 94.7011 15.7928 105.392 12.8987 116.235C7.74515 136.212 5.96855 158.128 16.0044 176.911C18.4378 181.432 21.3868 185.655 24.7925 189.497C28.1558 193.362 32.1024 196.576 35.8048 200.075C36.0896 200.346 35.6827 200.699 35.3843 200.55C31.4142 198.335 27.858 195.449 24.8739 192.019C21.7448 188.633 18.9852 184.923 16.6418 180.953C11.7175 172.654 8.59395 163.413 7.47391 153.829C6.23978 142.979 7.58242 131.953 9.94219 121.28C12.5972 110.068 15.9674 99.0381 20.0323 88.257C22.2564 82.1541 24.5484 76.0513 26.8132 70.0027C27.9253 67.0733 29.0374 64.1439 30.2444 61.2552C31.4726 58.3953 32.9189 55.6341 34.5706 52.996C34.8419 52.5485 35.642 52.9282 35.4115 53.4164V53.4571Z" fill="#9AA97B"/>
<path d="M42.1511 44.5062C41.2116 45.1869 40.2183 45.7902 39.1811 46.3099C38.7111 46.4764 38.2571 46.6852 37.8249 46.9338C37.1875 47.4084 37.3095 47.7339 37.418 48.3849C37.73 50.2564 36.55 51.6804 35.8991 53.335C34.5356 57.1773 34.4406 61.3556 35.6278 65.2559C35.709 65.784 35.8933 66.2909 36.1703 66.7477C36.4534 66.9992 36.786 67.1886 37.1468 67.3037C37.7006 67.5355 38.143 67.973 38.3809 68.5243C38.4756 68.971 38.5346 69.4245 38.5572 69.8805C38.6793 69.989 39.3574 69.9754 39.5337 70.0704C39.7657 70.1763 39.9631 70.3455 40.1033 70.5586C40.2253 70.7078 40.3202 71.1689 40.4287 71.2638C40.1575 71.0333 40.4287 71.1011 40.7814 70.979C41.4792 70.7846 42.1998 70.6843 42.9242 70.6807C43.7108 70.6807 44.4973 70.6807 45.2839 70.6807C46.1583 70.5269 47.0232 70.3232 47.8743 70.0704C48.0043 70.0512 48.1371 70.0694 48.2571 70.1229C48.3771 70.1765 48.4794 70.2631 48.552 70.3727C48.6246 70.4822 48.6644 70.6102 48.6669 70.7416C48.6693 70.873 48.6343 71.0024 48.5659 71.1146C47.7793 72.6743 45.4873 72.4708 43.9955 72.4708C42.8822 72.4759 41.7743 72.6264 40.7 72.9184C40.4193 73.0305 40.1114 73.0555 39.8163 72.9902C39.5212 72.9249 39.2526 72.7723 39.0454 72.5522C38.7878 72.2538 38.8013 71.9148 38.4487 71.6978C38.0961 71.4808 37.7435 71.5893 37.3909 71.3181C37.0383 71.0468 36.8755 70.2738 36.7128 69.65C36.4822 68.6871 35.6007 68.782 34.9226 68.1717C34.3515 67.4874 33.9724 66.6637 33.8241 65.7848C32.3642 61.3536 32.5228 56.5482 34.2717 52.2229C34.8928 51.2749 35.3512 50.2298 35.6278 49.1308C35.7092 48.0594 35.0854 47.1372 35.8855 46.1743C36.5556 45.5762 37.3682 45.1605 38.2453 44.9673C39.487 44.5749 40.7563 44.2757 42.0426 44.0722C42.0908 44.062 42.1411 44.0696 42.1841 44.0936C42.2271 44.1176 42.2599 44.1564 42.2764 44.2028C42.293 44.2491 42.2922 44.3 42.2741 44.3458C42.2561 44.3916 42.222 44.4293 42.1782 44.4519L42.1511 44.5062Z" fill="#9AA97B"/>
<path d="M18.1469 150.289C18.8114 158.888 22.2154 167.567 26.4061 175.013C30.9821 182.795 36.6192 189.901 43.155 196.129C46.7761 199.682 50.5598 203.086 54.208 206.612C54.4521 206.843 54.0995 207.236 53.8283 207.046C46.2396 201.71 39.3981 195.384 33.4854 188.236C27.5983 181.405 23.0649 173.516 20.1269 164.99C18.6584 160.232 17.8507 155.295 17.7265 150.317C17.7265 150.1 18.1198 150.059 18.1333 150.317L18.1469 150.289Z" fill="#9AA97B"/>
<path d="M23.4773 162.766C26.3926 169.04 30.2327 174.841 34.8694 179.976C35.1135 180.261 34.7337 180.736 34.4218 180.491C28.8964 175.946 24.9397 169.778 23.1112 162.861C23.1112 162.644 23.3959 162.522 23.4773 162.725V162.766Z" fill="#9AA97B"/>
<path d="M24.3452 125.972C24.6571 129.417 24.8198 132.875 25.4301 136.293C26.0009 139.487 26.8124 142.633 27.8577 145.705C30.0276 152.093 33.2825 157.911 35.7508 164.231C35.793 164.363 35.7865 164.506 35.7325 164.634C35.6784 164.763 35.5803 164.867 35.4559 164.929C35.3316 164.992 35.1891 165.007 35.0541 164.974C34.9192 164.94 34.8007 164.859 34.72 164.746C31.1951 158.855 28.3558 152.58 26.2574 146.044C24.1824 139.684 22.7177 132.618 24.0739 125.959C24.0739 125.923 24.0882 125.888 24.1137 125.863C24.1391 125.838 24.1736 125.823 24.2095 125.823C24.2455 125.823 24.28 125.838 24.3054 125.863C24.3309 125.888 24.3452 125.923 24.3452 125.959V125.972Z" fill="#9AA97B"/>
<path d="M48.2951 222.696C47.6446 222.584 47.0081 222.402 46.3965 222.154C45.869 221.906 45.4291 221.504 45.1352 221.001C44.9996 220.784 45.2573 220.513 45.4878 220.594C46.5728 221.015 47.3865 221.815 48.4443 222.276C48.5001 222.296 48.5457 222.337 48.5711 222.39C48.5965 222.444 48.5997 222.505 48.5799 222.561C48.5601 222.616 48.519 222.662 48.4656 222.688C48.4122 222.713 48.3509 222.716 48.2951 222.696V222.696Z" fill="#9AA97B"/>
<path d="M18.0793 135.723C17.7924 132.259 17.7154 128.781 17.8487 125.308C17.8487 125.265 17.8659 125.223 17.8964 125.193C17.9269 125.162 17.9683 125.145 18.0115 125.145C18.0546 125.145 18.096 125.162 18.1266 125.193C18.1571 125.223 18.1742 125.265 18.1742 125.308C18.1471 128.737 18.3237 132.166 18.7031 135.574C18.7031 135.981 18.12 136.117 18.0793 135.71V135.723Z" fill="#9AA97B"/>
<path d="M15.4758 127.478C17.5819 115.31 20.6197 103.323 24.5623 91.6203C24.5853 91.5793 24.6217 91.5475 24.6654 91.5303C24.7091 91.513 24.7574 91.5115 24.8022 91.5259C24.8469 91.5402 24.8853 91.5697 24.9108 91.6091C24.9363 91.6486 24.9473 91.6957 24.9421 91.7424C22.3924 103.785 19.0562 115.652 16.2082 127.587C16.0997 128.02 15.3402 127.885 15.4352 127.437L15.4758 127.478Z" fill="#9AA97B"/>
<path d="M54.5606 82.8319C54.5606 83.9576 54.4114 85.0832 54.4386 86.2088C54.47 87.4507 54.6245 88.6863 54.8997 89.8977C55.4962 92.3339 56.408 94.6818 57.6121 96.8821C59.7955 101.168 62.3045 105.25 64.2167 109.671L63.8234 109.807C63.5492 108.054 63.1871 106.315 62.7385 104.599C62.1723 102.855 61.4881 101.151 60.6906 99.4995C59.0318 96.4839 57.6954 93.3019 56.7034 90.0062C56.6976 89.9483 56.7115 89.8902 56.7429 89.8413C56.7742 89.7924 56.8212 89.7555 56.8762 89.7366C56.9312 89.7178 56.9909 89.718 57.0457 89.7374C57.1005 89.7568 57.1472 89.7942 57.1781 89.8434C58.7512 93.1932 60.3516 96.5566 61.8298 99.9471C63.1046 102.904 64.6371 106.497 64.2438 109.793C64.2359 109.835 64.2156 109.874 64.1854 109.905C64.1553 109.936 64.1167 109.957 64.0745 109.966C64.0323 109.974 63.9885 109.97 63.9486 109.954C63.9087 109.938 63.8746 109.91 63.8505 109.874C61.5993 105.046 58.0596 100.978 55.8083 96.1497C54.7606 93.947 54.0212 91.6105 53.6113 89.206C53.1162 87.0276 53.3057 84.7495 54.1538 82.6827C54.2894 82.4386 54.6149 82.6827 54.6284 82.8455L54.5606 82.8319Z" fill="#9AA97B"/>
<path d="M53.2316 92.6372C54.5199 94.6986 55.198 97.194 56.283 99.4182C57.461 101.746 58.8214 103.977 60.3516 106.091C60.3516 106.186 60.3516 106.294 60.216 106.213C58.5535 104.255 57.0608 102.159 55.7541 99.9471C54.2718 97.813 53.2256 95.4072 52.6756 92.8678C52.668 92.8028 52.6831 92.7372 52.7182 92.6821C52.7533 92.6269 52.8063 92.5855 52.8684 92.5648C52.9304 92.5441 52.9977 92.5454 53.0589 92.5685C53.1201 92.5916 53.1715 92.635 53.2044 92.6915L53.2316 92.6372Z" fill="#9AA97B"/>
<path d="M42.9248 39C40.9584 41.5632 38.9241 44.0721 36.8627 46.5811C34.9331 48.7203 33.148 50.9857 31.5193 53.362C29.8376 56.0744 29.7698 59.1665 29.2273 62.2451C28.8235 64.7031 27.7752 67.0101 26.1894 68.9311C24.2351 70.9867 22.5781 73.3057 21.2665 75.8206C20.2894 78.3236 19.5449 80.9113 19.0423 83.5508C17.571 89.1935 15.4692 94.6526 12.7767 99.8251C2.64595 121.009 -1.12427 145.556 4.63955 168.53C9.46759 187.828 21.0359 205.54 37.5408 216.797C46.8927 222.954 57.3685 227.203 68.367 229.301C79.664 231.633 91.1103 231.932 102.597 231.769C108.006 231.539 113.424 231.876 118.763 232.773C123.881 233.756 128.664 236.024 132.664 239.364C134.595 241.165 136.915 242.497 139.445 243.256C141.378 243.696 143.186 244.568 144.734 245.806C146.272 246.948 147.681 248.253 148.938 249.698C150.403 251.461 150.62 253.631 151.366 255.733C151.623 256.759 152.27 257.644 153.17 258.201C153.916 258.594 154.946 258.784 155.462 257.984C155.551 257.851 155.665 257.736 155.799 257.647C155.932 257.557 156.082 257.495 156.239 257.464C156.396 257.432 156.558 257.432 156.716 257.463C156.873 257.494 157.023 257.556 157.157 257.645C157.29 257.734 157.405 257.849 157.494 257.982C157.584 258.115 157.646 258.265 157.677 258.423C157.709 258.58 157.709 258.742 157.678 258.9C157.647 259.057 157.585 259.207 157.496 259.34C156.974 260.096 156.204 260.646 155.32 260.893C154.436 261.141 153.493 261.071 152.654 260.697C150.389 259.856 149.372 257.849 148.721 255.652C148.47 254.464 148.097 253.305 147.609 252.193C147.122 251.406 146.519 250.697 145.819 250.091C144.52 248.757 143.062 247.586 141.479 246.606C140.354 246.091 139.17 245.718 137.953 245.494C136.621 245.132 135.353 244.565 134.197 243.812C131.932 242.347 130.047 240.394 127.768 238.943C123.076 235.933 117.475 234.875 111.982 234.495C106.245 234.102 100.495 234.495 94.7585 234.414C88.7558 234.393 82.7596 234.013 76.8025 233.274C65.2031 231.972 53.9362 228.576 43.5487 223.252C25.4028 213.596 11.8274 196.413 5.07354 177.142C-2.68388 154.995 -1.16497 130.285 7.03999 108.505C9.2099 102.741 12.1529 97.3569 14.5669 91.7016C15.7151 88.9788 16.6227 86.1607 17.2793 83.2796C17.8142 80.499 18.6088 77.7747 19.6526 75.1425C20.9091 72.6675 22.512 70.3842 24.4128 68.3615C26.328 66.0537 27.4879 63.2131 27.7355 60.2244C27.9256 57.4775 28.7173 54.806 30.0546 52.3991C31.8101 49.8657 33.7311 47.4509 35.8048 45.1706C37.7984 42.7566 39.8734 40.3697 41.8806 38.0235C42.3959 37.4403 43.3995 38.3083 42.9113 38.9457L42.9248 39Z" fill="#9AA97B"/>
<path d="M41.9755 37.2642C45.9084 34.7598 49.864 32.2825 53.8422 29.8323C57.3091 27.5521 61.1316 25.8655 65.1528 24.8415C73.4527 23.0242 81.9832 24.9771 90.1339 26.5774L116.986 31.8937C124.988 33.4804 132.962 35.1214 140.842 37.2235C156.072 41.2921 171.329 47.1644 183.63 57.2816C194.357 66.2047 202.641 77.7082 207.702 90.7117C212.908 103.69 214.76 117.772 213.086 131.655C212.851 133.364 212.566 135.059 212.232 136.741C211.974 138.097 209.845 137.961 210.103 136.619C215.446 109.726 205.817 80.7844 185.84 62.0283C174.625 51.5313 160.385 45.0623 145.806 40.7089C129.979 35.9623 113.582 33.277 97.3895 30.1171C92.5072 29.1677 87.652 28.137 82.7562 27.2962C78.3171 26.4051 73.7822 26.0861 69.2621 26.3469C64.5269 26.874 59.9732 28.4692 55.9442 31.0122C51.5502 33.5754 47.1561 36.1114 42.7214 38.5933C41.867 39.0679 41.2567 37.766 42.0433 37.2371L41.9755 37.2642Z" fill="#9AA97B"/>
<path d="M156.343 257.347C156.67 258.4 157.276 259.345 158.098 260.081C158.919 260.817 159.925 261.316 161.008 261.524C162.129 261.738 163.282 261.707 164.39 261.433C165.497 261.159 166.532 260.649 167.423 259.937C171.424 256.967 173.011 251.597 173.296 246.809C173.919 236.123 168.739 226.1 168.956 215.414C169.146 206.002 174.069 197.783 179.724 190.555C185.732 182.906 192.445 175.908 197.599 167.608C203.581 157.634 207.947 146.777 210.537 135.439C210.835 134.246 212.896 134.625 212.693 135.859C210.731 146.603 206.864 156.91 201.274 166.292C198.59 170.917 195.543 175.32 192.16 179.461C188.987 183.38 185.583 187.11 182.396 191.016C176.035 198.868 170.692 207.643 171.275 218.139C171.912 229.355 177.5 240.137 174.842 251.502C173.702 256.343 170.515 261.334 165.579 262.948C161.51 264.304 156.303 261.972 155.489 257.523C155.477 257.467 155.477 257.409 155.488 257.353C155.498 257.297 155.52 257.243 155.552 257.195C155.583 257.148 155.624 257.106 155.671 257.074C155.718 257.042 155.772 257.019 155.828 257.008C155.884 256.996 155.942 256.996 155.998 257.007C156.054 257.017 156.108 257.039 156.156 257.071C156.204 257.102 156.245 257.143 156.277 257.19C156.309 257.238 156.332 257.291 156.343 257.347V257.347Z" fill="#9AA97B"/>
<path d="M58.5347 27.6215C59.3033 26.1027 60.3262 24.7267 61.5591 23.5529C62.7602 22.4354 64.1341 21.5194 65.6276 20.8406C66.9937 20.2503 68.5236 20.1577 69.9509 20.579C71.3782 21.0003 72.6126 21.9086 73.4393 23.1461C73.4575 23.1769 73.4667 23.2122 73.4658 23.2479C73.4648 23.2837 73.4538 23.3184 73.4339 23.3482C73.4141 23.378 73.3862 23.4015 73.3536 23.4161C73.321 23.4308 73.2848 23.4359 73.2494 23.4309C72.1909 23.1412 71.1968 22.6534 70.32 21.9933C69.5321 21.5738 68.6463 21.3727 67.7544 21.4109C66.8626 21.449 65.9972 21.725 65.2479 22.2103C62.7239 23.6062 60.5312 25.5306 58.8196 27.8521C58.7908 27.8952 58.746 27.9252 58.6952 27.9354C58.6443 27.9455 58.5915 27.9351 58.5483 27.9063C58.5051 27.8775 58.4752 27.8328 58.465 27.7819C58.4548 27.7311 58.4653 27.6782 58.4941 27.6351L58.5347 27.6215Z" fill="#9AA97B"/>
<path d="M59.904 27.6215C62.3994 23.4716 67.1054 19.4844 72.0148 22.3324C73.4388 23.1461 74.7272 24.0547 76.4224 23.6072C77.8034 23.0759 79.115 22.3792 80.3283 21.5322C81.4902 20.8693 82.7761 20.4526 84.106 20.3079C85.4359 20.1633 86.7813 20.2938 88.0586 20.6914C88.1037 20.7086 88.1412 20.7413 88.1645 20.7837C88.1877 20.8261 88.195 20.8753 88.1852 20.9227C88.1754 20.97 88.1491 21.0123 88.111 21.0419C88.0729 21.0716 88.0255 21.0868 87.9772 21.0847C85.1348 20.7704 82.2692 21.4199 79.8401 22.9291C77.9685 24.0683 76.002 25.2753 73.7779 24.3938C72.8199 23.9035 71.8874 23.3649 70.9841 22.7799C70.296 22.4165 69.5378 22.2055 68.7609 22.161C67.984 22.1165 67.2066 22.2397 66.4816 22.5222C63.7692 23.4987 62.1553 25.8585 60.2295 27.8792C60.0668 28.0555 59.8091 27.8114 59.9311 27.6215H59.904Z" fill="#9AA97B"/>
<path d="M71.5954 21.5051C72.3415 21.8973 73.0538 22.3509 73.7246 22.8613C74.5447 23.2525 75.3335 23.7059 76.0844 24.2175C76.1347 24.2576 76.1715 24.3122 76.1896 24.374C76.2077 24.4357 76.2062 24.5016 76.1854 24.5624C76.1646 24.6233 76.1255 24.6763 76.0734 24.7141C76.0213 24.7519 75.9589 24.7727 75.8945 24.7735C74.9638 24.6201 74.0843 24.2431 73.3313 23.675C72.5032 23.2318 71.7992 22.5884 71.2834 21.8035C71.2628 21.7582 71.2557 21.7078 71.2631 21.6586C71.2704 21.6093 71.2919 21.5632 71.3249 21.5259C71.3579 21.4886 71.401 21.4617 71.449 21.4483C71.497 21.435 71.5479 21.4359 71.5954 21.4509V21.5051Z" fill="#9AA97B"/>
<path d="M56.8126 29.3982C56.0938 24.6651 55.9718 18.1825 59.525 14.4801C61.2745 12.6628 63.7292 11.944 66.0076 11.0489C68.6909 9.87824 71.2877 8.51863 73.7786 6.98037C74.0227 6.84476 74.2532 7.21093 74.0498 7.40079C72.3194 8.93354 70.367 10.1955 68.2589 11.1439C66.0483 12.1746 63.5664 12.7035 61.4779 14.0461C56.8804 17.0433 56.7584 24.4617 57.1517 29.3033C57.1517 29.561 56.799 29.6559 56.7583 29.3847L56.8126 29.3982Z" fill="#9AA97B"/>
<path d="M63.5392 33.8874C67.4721 33.2093 70.6456 36.7761 72.2188 40.0038C73.9694 43.8741 74.4444 48.2008 73.575 52.3587C72.7383 56.6121 71.208 60.6991 69.0453 64.456C68.0664 66.3231 66.6788 67.9453 64.9857 69.2016C63.2927 70.4579 61.3379 71.3159 59.2672 71.7116C57.2052 72.1145 55.1148 72.3549 53.0152 72.4304C50.4054 72.6474 47.781 72.6202 45.1763 72.349C41.0264 71.8201 36.6866 69.9078 34.7066 65.9885C32.6316 61.8385 34.0691 57.0918 35.6016 53.0368C36.9578 49.2395 38.626 45.0624 41.9758 42.5399C43.9151 41.0888 46.424 40.5463 48.1057 38.7561C49.4619 37.3999 50.6283 35.4877 52.7439 35.447C54.0052 35.447 55.0494 36.2879 56.2022 35.5148C57.0803 34.8079 58.0358 34.2028 59.0502 33.7111C61.1968 32.858 63.5831 32.829 65.7498 33.6297C66.0321 33.7286 66.2637 33.9357 66.3934 34.2053C66.5231 34.4749 66.5404 34.7849 66.4415 35.0673C66.3425 35.3496 66.1355 35.5811 65.8659 35.7108C65.5963 35.8406 65.2862 35.8579 65.0039 35.7589C63.2863 35.1109 61.3834 35.1596 59.7012 35.8946C58.2229 36.5591 57.138 38.1458 55.4292 38.2137C54.5205 38.2137 53.6526 37.6576 52.7168 37.739C51.9358 37.936 51.2578 38.4203 50.8181 39.0952C49.8097 40.3626 48.5891 41.4455 47.2106 42.2958C45.525 43.0255 43.9427 43.9739 42.5047 45.1167C41.2126 46.4248 40.1735 47.9605 39.4397 49.6463C37.5793 53.1088 36.3877 56.8907 35.9271 60.7942C35.8462 62.6998 36.4022 64.578 37.5072 66.1325C38.6123 67.687 40.2037 68.8293 42.03 69.3789C46.0308 70.8572 50.6418 70.4639 54.8189 70.2605C58.4264 70.0841 62.4 69.5145 65.0988 66.8835C67.7976 64.2525 69.6828 59.872 70.8898 56.1832C73.5072 48.2088 72.8291 37.3728 63.4714 34.4841C63.4181 34.4713 63.3707 34.4409 63.3368 34.3979C63.3028 34.3548 63.2844 34.3016 63.2844 34.2468C63.2844 34.192 63.3028 34.1388 63.3368 34.0957C63.3707 34.0527 63.4181 34.0223 63.4714 34.0095L63.5392 33.8874Z" fill="#9AA97B"/>
<path d="M44.1592 71.1556C42.1627 78.1168 41.3827 85.3704 41.8537 92.5969C42.4526 99.9379 43.9417 107.179 46.2885 114.16C48.6393 121.239 51.4387 128.16 54.6697 134.883C57.7336 141.621 61.5508 147.991 66.0482 153.87C75.0397 165.316 86.2554 174.918 96.9422 184.737C107.385 194.325 117.651 204.184 126.06 215.658C134.468 227.131 141.656 240.205 154.35 247.325C155.584 248.016 154.35 249.847 153.129 249.156C141.656 242.7 134.482 231.308 127.131 220.811C118.774 209.262 109.228 198.621 98.651 189.063C87.8015 178.946 76.3824 169.249 66.8212 157.87C57.2601 146.492 50.7503 132.577 45.7867 118.541C40.4704 103.623 36.9172 85.9923 43.0743 70.7487C43.0983 70.6775 43.1362 70.6117 43.1857 70.555C43.2351 70.4984 43.2953 70.4521 43.3626 70.4187C43.43 70.3854 43.5033 70.3656 43.5783 70.3605C43.6533 70.3555 43.7286 70.3653 43.7999 70.3893C43.8711 70.4134 43.9369 70.4512 43.9935 70.5007C44.0501 70.5501 44.0964 70.6103 44.1298 70.6777C44.1632 70.745 44.183 70.8183 44.188 70.8933C44.1931 70.9684 44.1833 71.0436 44.1592 71.1149V71.1556Z" fill="#9AA97B"/>
<path d="M40.7141 69.9211C35.6149 98.8079 38.2187 129.593 52.6622 155.592C66.0207 179.61 88.6284 196.481 109.622 213.46C121.448 223.035 133.139 232.908 143.134 244.449C143.893 245.331 142.537 246.538 141.778 245.656C123.632 224.622 100.115 209.378 79.7589 190.717C69.6037 181.715 60.7774 171.318 53.5437 159.837C46.007 147.262 40.9864 133.343 38.7612 118.852C36.1998 102.545 36.5626 85.9116 39.8326 69.7312C39.9411 69.2023 40.8769 69.3786 40.7819 69.9211H40.7141Z" fill="#9AA97B"/>
<path d="M38.4764 68.7277C37.1202 76.2546 34.9231 83.6459 33.6212 91.1998C32.2105 98.7256 31.3043 106.337 30.9088 113.984C30.6022 121.426 31.1482 128.88 32.5362 136.198C34.0904 143.83 36.6822 151.213 40.2394 158.141C43.7047 165.243 47.6609 172.095 52.079 178.647C56.2911 184.651 61.3685 189.998 67.1462 194.514C78.3348 203.398 91.1237 210.233 103.411 217.461C110.517 221.652 117.61 225.897 124.459 230.481C130.86 234.753 137.492 239.255 142.849 244.843C143.622 245.643 142.415 247.08 141.493 246.335C136.068 241.832 130.575 237.438 124.717 233.451C118.573 229.287 112.226 225.395 105.838 221.598C93.2665 214.125 80.1792 207.195 68.4346 198.42C62.637 194.211 57.4164 189.259 52.9062 183.692C48.1407 177.278 43.926 170.473 40.3072 163.349C36.5128 156.606 33.5829 149.411 31.5869 141.935C29.8064 134.544 28.9725 126.956 29.1051 119.354C29.2473 110.707 30.1229 102.086 31.7225 93.5867C32.482 89.5182 33.4177 85.4496 34.4349 81.381C35.4385 77.0954 36.4285 72.7692 37.8389 68.5921C37.9746 68.2395 38.6119 68.3345 38.5306 68.7413L38.4764 68.7277Z" fill="#9AA97B"/>
<path d="M36.0899 66.1374C35.0864 70.3145 33.581 74.383 32.2384 78.4652C30.8957 82.5473 29.526 86.6023 28.3868 90.7929C25.9578 98.9223 24.1444 107.223 22.962 115.625C20.887 131.058 21.9448 146.899 28.0206 161.369C33.9471 175.514 44.8102 187.652 56.5006 197.322C68.191 206.991 82.2682 213.664 96.3455 219.55C111.657 225.937 127.809 231.755 141.181 241.886C142.429 242.836 141.181 244.843 139.825 243.934C127.063 235.078 112.918 229.152 98.6239 223.252C84.3296 217.353 70.388 211.291 58.2094 201.906C46.0308 192.521 34.571 180.397 27.668 166.428C20.765 152.459 19.3952 136.592 20.7243 121.348C21.6275 112.063 23.3752 102.88 25.9456 93.9122C27.3018 89.1655 28.658 84.4188 30.2583 79.7671C31.705 75.0445 33.4073 70.404 35.3576 65.8662C35.4028 65.7786 35.4782 65.7105 35.5699 65.6743C35.6615 65.6382 35.7632 65.6366 35.8559 65.6697C35.9487 65.7028 36.0263 65.7685 36.0743 65.8545C36.1223 65.9405 36.1375 66.041 36.117 66.1374H36.0899Z" fill="#9AA97B"/>
<path d="M34.4892 61.9604C30.7868 71.1825 26.7996 80.269 23.6397 89.6674C20.3343 99.0919 17.8478 108.784 16.2078 118.636C13.2919 137.215 13.8887 156.772 20.629 174.497C23.6381 182.679 28.1144 190.244 33.8382 196.82C40.2123 203.981 48.2817 209.202 56.7036 213.637C65.6115 218.314 74.9664 222.085 84.6276 224.893C90.1334 226.483 95.778 227.546 101.485 228.067C106.584 228.441 111.635 229.308 116.566 230.657C123.624 232.837 130.326 236.035 136.461 240.15C138.59 241.507 140.652 242.958 142.686 244.436C144.042 245.399 142.605 247.514 141.33 246.552C134.599 241.4 127.175 237.222 119.278 234.142C114.121 232.36 108.765 231.217 103.329 230.738C98.3059 230.339 93.3193 229.563 88.4114 228.419C78.5881 225.867 69.0467 222.332 59.9314 217.868C51.1975 213.61 42.6399 208.646 35.5877 201.879C29.2978 195.76 24.2344 188.496 20.6696 180.478C12.98 163.403 11.1763 144.037 13.1834 125.566C15.5279 105.473 21.3032 85.9313 30.2579 67.792C31.3021 65.6628 32.3871 63.5742 33.5399 61.5128C33.8382 60.9839 34.7062 61.4179 34.4892 61.9739V61.9604Z" fill="#9AA97B"/>
<path d="M153.02 246.728C153.431 247.295 154.031 247.698 154.711 247.864C155.392 248.031 156.109 247.95 156.736 247.636C157.475 247.315 158.104 246.787 158.55 246.115C158.995 245.444 159.236 244.658 159.245 243.853C159.543 240.354 157.618 236.706 156.044 233.708C154.271 230.582 152.695 227.348 151.325 224.025C149.969 220.526 149.087 216.919 148.084 213.338C143.923 199.302 138.714 185.597 132.501 172.341C126.412 158.86 119.848 145.597 113.962 132.021C111.046 125.24 108.306 118.459 105.825 111.678C103.302 104.518 101.105 97.2619 98.4877 90.1419C93.1985 75.8205 85.5767 61.255 72.1369 53.0501C71.0112 52.3584 72.1369 50.7039 73.2761 51.3548C85.8344 58.4206 93.5105 71.101 98.9352 84.1882C101.96 91.6202 104.36 99.3098 106.896 106.918C109.432 114.526 112.321 121.836 115.44 129.065C121.597 143.44 128.582 157.423 135.023 171.663C141.557 185.764 146.95 200.368 151.149 215.332C152.25 219.85 153.842 224.234 155.895 228.406C157.753 231.972 160.045 235.539 160.967 239.499C161.673 242.524 161.591 246.714 158.621 248.532C156.506 249.888 153.305 249.576 152.125 247.175C151.827 246.592 152.681 246.185 153.02 246.728V246.728Z" fill="#9AA97B"/>
<path d="M159.964 238.889C158.296 231.945 154.539 225.964 152.071 219.305C149.602 212.647 148.436 205.621 146.958 198.691C143.836 184.866 139.567 171.325 134.196 158.209C129.015 145.068 123.224 132.197 117.691 119.205C114.911 112.668 112.267 106.118 109.676 99.4724C107.086 92.8271 105.011 86.1682 102.393 79.6178C97.2263 66.5576 88.2755 52.3312 73.0861 50.2834C71.9198 50.1206 72.0283 48.2898 73.1946 48.4389C86.0513 50.202 95.3412 60.5362 100.874 71.5891C103.88 78.0346 106.493 84.6559 108.7 91.4166C111.127 98.1976 113.799 104.979 116.579 111.76C127.564 138.273 140.421 164.258 147.31 192.263C149.291 200.265 150.443 208.537 152.898 216.376C154.203 220.204 155.729 223.954 157.468 227.605C159.222 231.111 160.386 234.882 160.913 238.767C160.913 239.391 160.072 239.621 159.923 238.97L159.964 238.889Z" fill="#9AA97B"/>
<path d="M73.507 46.0248C80.4446 47.4929 87.2118 49.6744 93.7007 52.5346C100.147 55.1757 106.385 58.2993 112.362 61.8787C124.369 68.8702 134.656 78.4628 142.469 89.9519C159.245 115.489 159.069 147.766 159.774 177.169C160.263 197.267 160.859 217.352 161.212 237.451C161.212 239.092 158.73 238.902 158.676 237.289C158.133 219.78 157.821 202.272 157.387 184.763C157.021 169.153 157.008 153.449 155.353 137.907C153.834 123.518 150.647 109.196 143.69 96.3938C136.85 84.3177 127.185 74.0799 115.522 66.5576C109.028 62.2638 102.161 58.5645 95.0026 55.5046C87.8691 52.4261 80.4643 50.1883 73.2222 47.3675C72.5441 47.1098 72.7068 45.9028 73.4934 46.0113L73.507 46.0248Z" fill="#9AA97B"/>
<path d="M74.5239 46.4186C80.7885 49.3948 86.8143 52.8498 92.5477 56.7527C98.3059 60.4748 103.827 64.5513 109.08 68.9585C118.873 77.0894 127.084 86.9554 133.301 98.0623C136.359 103.701 138.736 109.683 140.381 115.883C142.252 122.908 143.391 130.123 144.68 137.27C147.392 152.324 150.104 167.377 152.613 182.458C153.97 190.812 155.394 199.166 156.682 207.548C157.315 211.734 157.939 215.924 158.553 220.12C159.338 224.359 159.706 228.665 159.652 232.976C159.652 233.505 158.92 233.492 158.77 232.976C157.703 229.356 156.959 225.648 156.546 221.896C156.004 218.153 155.448 214.419 154.878 210.694C153.766 203.407 152.622 196.124 151.447 188.846C149.047 174.023 146.47 159.227 143.88 144.444C141.452 130.692 139.811 116.384 133.911 103.582C128.449 92.2925 120.855 82.1657 111.548 73.7594C105.957 68.5718 99.9767 63.8203 93.6597 59.5465C87.2856 55.1796 80.5318 51.4093 74.1034 47.178C73.7102 46.9203 74.0356 46.2016 74.4832 46.4186H74.5239Z" fill="#9AA97B"/>
<path d="M72.7342 41.9565C81.5358 42.4855 90.0934 45.4962 98.1221 49.0087C106.164 52.6169 113.948 56.7721 121.421 61.445C134.495 69.4465 147.406 78.8178 156.113 91.6474C160.601 98.2819 163.731 105.74 165.321 113.591C166.868 121.904 167.41 130.373 166.935 138.816C166.623 147.414 165.755 155.985 165.254 164.583C164.698 174.402 164.575 184.248 164.413 194.081L163.884 223.632C163.789 228.555 163.653 233.478 163.585 238.401C163.585 242.117 163.49 246.538 160.032 248.803C159.381 249.253 158.64 249.556 157.86 249.69C157.08 249.823 156.28 249.784 155.516 249.576C154.16 249.223 154.865 247.135 156.221 247.501C158.188 248.03 159.964 246.443 160.697 244.789C161.37 242.795 161.655 240.691 161.538 238.591C161.646 233.858 161.673 229.097 161.755 224.378C161.908 214.993 162.067 205.608 162.229 196.223C162.392 186.852 162.487 177.467 162.934 168.109C163.341 159.688 164.169 151.306 164.63 142.898C165.511 126.908 164.82 110.349 156.493 96.2449C148.898 83.239 136.679 73.6643 124.188 65.6628C110.07 56.617 95.0028 48.3984 78.5522 44.5604C76.5179 44.0858 74.4837 43.5433 72.4629 43.0822C71.8391 42.9466 72.0697 41.9701 72.6799 42.0108L72.7342 41.9565Z" fill="#9AA97B"/>
<path d="M163.124 238.292C161.871 229.562 161.72 220.709 162.677 211.941C163.9 203.761 166.78 195.916 171.14 188.886C175.208 181.956 179.982 175.324 182.83 167.73C185.908 159.592 186.41 150.587 186.112 141.962C185.515 124.779 180.416 107.8 170.258 93.8172C160.765 80.7706 147.583 71.0196 133.275 63.8182C117.421 55.8438 100.197 50.9887 83.0956 46.5268C80.9555 46.0003 78.8458 45.3574 76.7758 44.601C75.7315 44.2213 75.9756 42.4311 77.1691 42.6074C81.6252 43.4037 86.0312 44.4588 90.3648 45.7673C94.804 46.9608 99.2252 48.2175 103.628 49.5375C112.332 52.1489 120.857 55.32 129.152 59.0309C143.69 65.5948 157.456 74.5593 167.953 86.7785C179.069 99.9286 186.022 116.088 187.929 133.201C189.114 141.972 188.995 150.87 187.577 159.606C186.058 167.838 182.342 175.053 177.988 182.132C173.635 189.212 168.942 196.21 166.556 204.265C163.925 213.176 164.142 222.262 164.047 231.389C164.047 233.654 163.979 235.919 163.965 238.17C163.941 238.264 163.887 238.346 163.811 238.405C163.735 238.464 163.641 238.497 163.545 238.497C163.449 238.497 163.355 238.464 163.279 238.405C163.203 238.346 163.148 238.264 163.124 238.17V238.292Z" fill="#9AA97B"/>
<path d="M170.61 190.338C172.197 182.892 174.082 175.542 175.235 168.001C176.306 160.755 176.998 153.458 177.31 146.139C177.635 139.169 177.744 132.171 177.513 125.2C177.401 119.209 176.664 113.245 175.316 107.407C174.547 104.202 173.452 101.085 172.048 98.1032C170.493 95.0419 168.678 92.1198 166.623 89.3693C166.352 88.976 166.799 88.2979 167.233 88.6777C171.614 92.5157 174.286 98.171 176.035 103.596C177.82 109.518 178.85 115.642 179.1 121.823C179.507 128.699 179.385 135.615 179.1 142.491C178.802 150.167 178.232 157.843 177.174 165.452C175.994 173.901 174.462 182.621 171.085 190.487C171.06 190.541 171.016 190.584 170.961 190.608C170.907 190.632 170.845 190.635 170.788 190.617C170.732 190.598 170.684 190.56 170.653 190.508C170.623 190.457 170.612 190.396 170.624 190.338H170.61Z" fill="#9AA97B"/>
<path d="M105.324 51.7074C108.809 53.918 112.105 56.3184 115.726 58.4884C119.347 60.6583 122.832 62.4484 126.453 64.32C133.91 67.9266 141.155 71.9566 148.152 76.3901C160.83 84.8361 170.365 97.2312 175.276 111.651C178.174 119.679 179.33 128.232 178.667 136.741C178.646 136.875 178.578 136.997 178.474 137.086C178.371 137.174 178.24 137.223 178.104 137.223C177.968 137.223 177.837 137.174 177.733 137.086C177.63 136.997 177.562 136.875 177.541 136.741C177.696 129.221 176.75 121.718 174.734 114.472C172.583 107.234 169.242 100.405 164.847 94.2647C160.324 88.0206 154.759 82.6024 148.396 78.2481C141.741 73.8696 134.805 69.9327 127.633 66.4628C123.565 64.3742 119.496 62.2857 115.644 59.9937C111.744 57.9042 108.103 55.3643 104.795 52.4262C104.497 52.1414 104.931 51.6803 105.27 51.8973L105.324 51.7074Z" fill="#9AA97B"/>
<path d="M160.222 101.263C161.903 103.819 163.308 106.547 164.413 109.4C165.596 112.168 166.628 114.997 167.505 117.876C169.377 123.925 170.649 130.144 171.302 136.442C172.658 149.896 170.909 163.295 168.4 176.518C167.668 180.37 166.895 184.221 166.149 188.086C165.497 191.926 164.591 195.718 163.436 199.438C163.4 199.539 163.328 199.623 163.235 199.676C163.141 199.729 163.031 199.746 162.926 199.725C162.821 199.703 162.727 199.645 162.661 199.56C162.595 199.474 162.562 199.369 162.568 199.261C163.016 192.589 164.806 185.984 166.122 179.42C167.478 172.639 168.834 165.723 169.621 158.793C171.15 146.078 170.229 133.188 166.908 120.819C165.999 117.469 164.874 114.187 163.667 110.919C162.46 107.651 160.873 104.721 159.775 101.521C159.775 101.304 160.046 101.141 160.168 101.317L160.222 101.263Z" fill="#9AA97B"/>
<path d="M88.778 55.2203C92.7892 57.471 96.5101 60.2036 99.8581 63.3574C103.346 66.4946 106.634 69.8464 109.704 73.3932C115.887 80.5427 121.199 88.4002 125.531 96.8011C130.135 105.725 133.855 115.077 136.638 124.725C137.994 129.58 139.255 134.503 140.3 139.467C141.425 144.892 142.32 150.316 143.69 155.646C145.223 161.641 147.325 167.472 149.115 173.399C150.905 179.325 152.763 185.225 153.292 191.301C153.292 191.802 152.587 192.196 152.37 191.626C150.58 186.744 149.522 181.604 148.071 176.613C146.62 171.622 144.816 166.374 143.229 161.247C140.123 151.144 138.903 140.606 136.245 130.394C131.295 111.407 123.185 93.2886 111.06 77.7873C107.832 73.6645 104.306 69.7844 100.509 66.1783C96.6439 62.5166 92.3719 59.3973 88.3033 55.8848C88.2228 55.816 88.1703 55.7202 88.1555 55.6154C88.1407 55.5106 88.1647 55.404 88.2231 55.3157C88.2814 55.2273 88.37 55.1634 88.4722 55.1358C88.5744 55.1083 88.6832 55.119 88.778 55.166V55.2203Z" fill="#9AA97B"/>
<path d="M72.5716 50.6632C79.7865 51.4769 85.5774 56.3999 89.9308 61.906C94.6915 68.3206 98.7345 75.2378 101.987 82.5337C109.379 97.8994 114.844 114.079 120.838 130C124.215 139.006 127.741 147.943 131.254 156.894C131.279 156.944 131.294 156.998 131.298 157.053C131.302 157.109 131.295 157.165 131.277 157.218C131.259 157.271 131.232 157.32 131.195 157.362C131.158 157.404 131.114 157.438 131.064 157.463C131.014 157.488 130.96 157.503 130.904 157.507C130.849 157.511 130.793 157.504 130.74 157.486C130.687 157.469 130.638 157.441 130.596 157.404C130.554 157.368 130.519 157.323 130.495 157.273C122.357 142.871 117.367 126.854 111.589 111.434C105.907 96.2312 99.8853 80.6486 90.9344 67.0189C86.4183 60.1566 80.4782 54.0401 72.3139 51.938C71.5816 51.7617 71.8257 50.5819 72.5716 50.6497V50.6632Z" fill="#9AA97B"/>
<path d="M156.6 219.455C149.941 207.995 151.515 194.23 147.107 182.078C146.971 181.726 147.473 181.454 147.636 181.807C150.348 187.693 151.352 193.904 152.315 200.265C153.278 206.625 154.295 213.271 157.387 219.089C157.631 219.55 156.926 219.902 156.655 219.455H156.6Z" fill="#9AA97B"/>
<path d="M158.54 220.323C149.807 199.98 152.885 177.467 152.288 155.931C152.146 149.634 151.538 143.356 150.471 137.148C150.465 137.058 150.492 136.968 150.547 136.896C150.601 136.824 150.679 136.773 150.768 136.754C150.856 136.734 150.948 136.746 151.028 136.789C151.108 136.831 151.17 136.901 151.203 136.985C156.859 158.237 152.56 180.383 155.381 201.906C156.095 208.018 157.519 214.026 159.625 219.808C159.897 220.527 158.852 221.083 158.54 220.35V220.323Z" fill="#9AA97B"/>
<path d="M78.7686 49.2802C81.1402 49.7916 83.4245 50.646 85.5496 51.8163C87.7873 52.7928 89.9843 53.8777 92.1407 55.0305C96.6384 57.4226 101.003 60.0575 105.214 62.9235C113.609 68.528 121.304 75.1161 128.134 82.5476C128.527 82.9951 127.863 83.5512 127.442 83.1579C120.319 76.1556 112.606 69.7804 104.387 64.1034C100.318 61.391 96.0736 58.76 91.7474 56.4002C89.6453 55.261 87.5296 54.1761 85.4004 53.0911C83.2712 52.0062 80.5723 51.1518 78.6194 49.6193C78.4838 49.5243 78.538 49.2531 78.7415 49.2802H78.7686Z" fill="#9AA97B"/>
<path d="M149.698 127.153C148.697 118.814 146.576 110.648 143.392 102.877C140.086 95.2914 135.995 88.0732 131.186 81.3404C130.955 81.0014 131.498 80.6759 131.756 80.9471C137.244 87.3533 141.613 94.6386 144.68 102.497C147.896 110.3 149.997 118.519 150.918 126.908C151.013 127.681 149.82 127.939 149.725 127.153H149.698Z" fill="#9AA97B"/>
<path d="M72.531 41.6582C78.0429 42.9733 83.3656 44.983 88.3713 47.639C93.5304 50.2016 98.3541 53.3901 102.733 57.1324C103.33 57.6477 102.733 58.6649 102.015 58.1902C97.4496 54.978 92.7042 52.0302 87.8017 49.3614C82.7428 46.7978 77.5502 44.507 72.2462 42.499C72.1484 42.4513 72.0714 42.3695 72.0296 42.2691C71.9877 42.1687 71.9839 42.0564 72.0188 41.9534C72.0537 41.8503 72.1249 41.7635 72.2192 41.7092C72.3135 41.6549 72.4243 41.6367 72.531 41.6582V41.6582Z" fill="#9AA97B"/>
<path d="M162.677 159.416C164.442 139.167 160.953 118.806 152.546 100.3C151.362 97.7142 150.1 95.1691 148.762 92.6646C147.406 90.1828 145.819 87.7823 144.694 85.2327C144.628 85.1088 144.61 84.9651 144.644 84.8291C144.678 84.693 144.761 84.5741 144.876 84.4952C144.992 84.4163 145.133 84.3829 145.272 84.4013C145.411 84.4198 145.538 84.4889 145.63 84.5953C147.218 86.5388 148.612 88.6328 149.793 90.8473C151.149 93.1122 152.343 95.3906 153.468 97.7503C155.643 102.311 157.519 107.009 159.083 111.814C164.16 127.16 165.758 143.444 163.762 159.484C163.742 159.605 163.68 159.714 163.587 159.794C163.494 159.873 163.375 159.916 163.253 159.916C163.131 159.916 163.013 159.873 162.92 159.794C162.826 159.714 162.764 159.605 162.745 159.484L162.677 159.416Z" fill="#9AA97B"/>
<path d="M140.611 83.3205C139.639 81.8183 138.575 80.3779 137.424 79.0079C136.353 77.733 135.092 76.621 134.074 75.319C133.844 75.0207 134.196 74.5596 134.536 74.8037C137.329 76.7973 139.526 80.0928 141.384 82.9408C141.696 83.4155 140.923 83.7952 140.611 83.3341V83.3205Z" fill="#9AA97B"/>
<path d="M122.262 60.0345C125.707 60.7384 129.014 61.998 132.054 63.764C135.355 65.3218 138.415 67.3451 141.141 69.7719C141.602 70.2195 140.937 70.8569 140.435 70.5721C137.411 68.809 134.604 66.7069 131.498 65.0388C128.392 63.3707 125.124 62.2315 122.086 60.5498C122.037 60.5141 122 60.4634 121.982 60.4053C121.963 60.3471 121.964 60.2846 121.984 60.2269C122.003 60.1692 122.041 60.1194 122.091 60.0847C122.141 60.0501 122.201 60.0325 122.262 60.0345V60.0345Z" fill="#9AA97B"/>
<path d="M170.502 188.289C173.754 176.491 176.389 164.531 178.395 152.459C180.433 140.982 181.237 129.32 180.795 117.672C180.66 111.723 178.972 105.912 175.899 100.815C175.737 100.571 176.143 100.286 176.333 100.53C179.493 104.463 180.863 109.495 181.555 114.418C182.241 120.022 182.455 125.675 182.192 131.316C181.7 143.772 179.987 156.15 177.079 168.272C175.479 175.148 173.499 181.834 171.383 188.615C171.207 189.198 170.339 188.9 170.502 188.316V188.289Z" fill="#9AA97B"/>
<path d="M164.561 207.426C163.395 197.078 165.917 186.445 168.385 176.464C171.016 165.994 174.163 155.605 175.668 144.892C176.414 138.942 176.686 132.942 176.482 126.949C176.482 126.474 177.214 126.447 177.309 126.949C179.479 137.066 177.404 147.957 175.071 157.843C172.59 168.313 169.294 178.579 167.165 189.131C166.015 195.181 165.277 201.302 164.954 207.453C164.954 207.67 164.588 207.71 164.561 207.453V207.426Z" fill="#9AA97B"/>
<path d="M64.6642 67.4126C65.8398 65.7198 67.1265 64.1069 68.5158 62.5845C69.9172 60.888 71.0305 58.9729 71.8113 56.9156C72.4003 54.6679 72.6741 52.3493 72.625 50.0262C72.7742 47.6529 73.7371 45.2253 73.3031 42.8384C72.7015 40.7647 71.6452 38.8513 70.211 37.2373C69.0718 35.5828 67.5321 34.2437 65.7356 33.345C63.5656 32.45 61.572 33.4535 59.592 34.3486C57.612 35.2437 55.2793 36.2609 53.1366 37.2373C51.1461 38.1052 49.2278 39.1301 47.3999 40.3023C45.488 41.6721 43.7763 43.3017 42.3141 45.1439C41.6903 45.8491 40.3341 45.388 40.7274 44.3573C42.2734 40.1938 46.993 37.6849 50.7632 35.8811C53.2586 34.6741 55.8083 33.5892 58.3443 32.45C60.4871 31.4871 62.657 30.4428 65.1253 30.9175C69.3295 31.7447 72.0554 36.3422 73.9676 39.7463C75.116 41.8902 75.4254 44.3847 74.8356 46.7442C74.2931 49.5787 74.4288 52.4402 73.8999 55.2611C73.3635 57.7256 72.2891 60.0412 70.7535 62.0421C69.2303 64.2748 67.2975 66.1985 65.0575 67.7109C64.8405 67.8466 64.6371 67.5482 64.7456 67.3583L64.6642 67.4126Z" fill="#9AA97B"/>
<path d="M68.4749 33.8736C81.2193 34.5122 93.8678 36.425 106.231 39.5831C118.641 42.5927 130.779 46.6254 142.523 51.6397C153.621 56.1413 164.246 61.7288 174.244 68.3208C183.209 74.4644 191.427 82.276 195.943 92.3525C198.586 98.7057 200.167 105.45 200.622 112.316C201.314 119.645 201.585 127.007 201.436 134.367C201.436 134.978 200.568 134.883 200.541 134.367C199.781 121.985 199.402 108.912 195.36 97.0585C191.766 86.4938 184.104 78.2481 175.221 71.7791C165.726 65.1694 155.568 59.5696 144.91 55.0708C133.538 50.0231 121.795 45.8564 109.784 42.6074C96.1791 39.1459 82.3417 36.6712 68.3799 35.2026C68.2001 35.1918 68.0319 35.11 67.9124 34.9752C67.7928 34.8405 67.7317 34.6637 67.7425 34.4838C67.7533 34.304 67.8351 34.1358 67.9699 34.0163C68.1047 33.8967 68.2815 33.8356 68.4613 33.8464L68.4749 33.8736Z" fill="#9AA97B"/>
<path d="M71.1331 29.3168C81.9148 28.815 93.3611 29.588 103.682 33.0056C104.102 33.1413 103.98 33.86 103.533 33.7787C98.1078 32.8293 92.8457 31.7173 87.421 31.0663C82.019 30.4383 76.585 30.1258 71.1467 30.1305C70.5906 30.1305 70.6584 29.3168 71.1467 29.2897L71.1331 29.3168Z" fill="#9AA97B"/>
<path d="M88.7912 32.8022C93.2265 32.3877 97.6983 32.9716 101.878 34.511C102.299 34.6873 102.231 35.4603 101.716 35.3654C97.4635 34.3484 93.109 33.8205 88.737 33.7922C88.0996 33.7922 88.1674 32.8429 88.737 32.8022H88.7912Z" fill="#9AA97B"/>
<path d="M162.283 255.733C165.172 256.533 166.352 251.597 166.772 249.603C167.334 247.08 167.472 244.482 167.179 241.914C166.718 237.547 165.823 233.126 167.057 228.786C167.057 228.623 167.383 228.677 167.355 228.786C166.27 234.563 169.091 240.218 168.63 246.05C168.4 249.02 166.921 258.12 162.093 256.221C162.021 256.196 161.962 256.144 161.929 256.075C161.896 256.006 161.892 255.927 161.917 255.855C161.942 255.783 161.995 255.724 162.064 255.691C162.132 255.658 162.211 255.654 162.283 255.679V255.733Z" fill="#9AA97B"/>
<path d="M12.071 168.272C13.3236 174.501 15.247 180.576 17.8077 186.391C20.5126 192.146 24.0596 197.467 28.3318 202.177C32.5851 206.899 37.5443 210.935 43.0329 214.139C49.4284 217.701 56.2693 220.396 63.3757 222.154C67.4443 223.225 71.6214 224.066 75.7849 224.866C79.9484 225.666 84.3153 226.222 88.5602 227.009C89.2383 227.145 89.2247 228.189 88.4924 228.121C84.5459 227.768 80.5994 227.077 76.68 226.507C72.9911 225.965 69.343 225.287 65.7084 224.459C58.2298 222.865 50.9934 220.293 44.1856 216.81C32.5247 210.558 23.0835 200.852 17.1568 189.022C13.7258 182.618 11.7137 175.55 11.2573 168.299C11.2573 167.825 11.9625 167.798 12.0575 168.299L12.071 168.272Z" fill="#9AA97B"/>
<path d="M122.588 235.757C119.645 234.4 117.027 232.325 114.057 230.928C111.087 229.532 107.887 228.42 104.754 227.294C97.9729 224.853 91.1919 222.466 84.5059 219.686C72.0968 214.505 60.0945 207.968 50.4249 198.529C45.3038 193.691 41.0675 187.995 37.9072 181.699C37.8191 181.519 37.806 181.311 37.8709 181.122C37.9357 180.932 38.0732 180.776 38.253 180.688C38.4329 180.6 38.6403 180.587 38.8298 180.652C39.0193 180.717 39.1753 180.854 39.2634 181.034C52.3913 205.649 78.9591 216.499 103.899 225.314C107.358 226.494 110.753 227.852 114.071 229.382C117.122 230.847 120.852 232.542 122.818 235.35C122.94 235.512 122.818 235.824 122.574 235.716L122.588 235.757Z" fill="#9AA97B"/>
<path d="M35.5468 66.5579C34.706 72.4709 33.0378 78.2889 31.8037 84.1883C30.5289 90.2641 29.4033 96.3941 28.5895 102.538C26.9406 113.905 27.0916 125.461 29.0371 136.781C32.5781 155.057 41.3072 171.927 54.1809 185.374C57.777 189.169 61.6877 192.653 65.8712 195.789C70.0619 198.949 74.578 201.54 79.0263 204.293C79.1523 204.374 79.2437 204.499 79.2832 204.644C79.3227 204.789 79.3074 204.943 79.2403 205.078C79.1731 205.212 79.0589 205.317 78.9193 205.372C78.7798 205.427 78.6247 205.429 78.4838 205.378C69.9805 201.824 62.2095 195.64 55.6862 189.266C48.8854 182.676 43.0585 175.15 38.3812 166.916C33.7406 158.764 30.3141 149.978 28.2098 140.836C25.8532 129.875 25.2626 118.608 26.4603 107.461C27.1131 100.592 28.1408 93.7652 29.5389 87.0092C30.7606 80.0047 32.4368 73.0871 34.5568 66.3002C34.7466 65.7713 35.6417 65.9069 35.5468 66.49V66.5579Z" fill="#9AA97B"/>
<path d="M37.4466 69.7044C37.4466 76.5667 36.7685 83.4155 36.5108 90.2642C36.2531 97.113 36.4294 103.826 36.7006 110.607C36.9583 117.591 37.3787 124.589 38.0568 131.547C38.6807 138.016 39.3452 144.214 41.6508 150.33C50.344 173.385 69.5747 189.158 89.1175 202.95C95.261 207.304 101.54 211.44 107.724 215.739C113.909 220.038 120.527 224.161 126.196 229.301C126.562 229.626 126.033 230.101 125.667 229.911C119.455 226.616 113.814 222.289 108.036 218.275C102.259 214.261 96.8206 210.26 91.1653 206.314C80.7633 199.044 70.4291 191.545 61.424 182.539C53.1322 174.518 46.5974 164.861 42.2339 154.182C40.1754 148.443 38.7121 142.508 37.867 136.47C36.8526 129.8 36.1826 123.082 35.8598 116.344C35.3987 108.641 35.3852 101.005 35.4123 93.2885C35.4394 85.5718 35.4123 77.4753 36.8769 69.7315C36.8918 69.6616 36.9302 69.5988 36.9858 69.5538C37.0413 69.5088 37.1106 69.4843 37.1821 69.4843C37.2536 69.4843 37.3229 69.5088 37.3785 69.5538C37.434 69.5988 37.4724 69.6616 37.4872 69.7315L37.4466 69.7044Z" fill="#9AA97B"/>
<path d="M43.9962 71.3858C44.4844 74.6949 44.2403 78.1667 44.4166 81.5708C44.5929 84.9748 44.9456 88.4195 45.4067 91.8371C46.3584 98.6967 47.8457 105.471 49.855 112.099C54.0335 125.699 59.9308 138.711 67.4041 150.818C69.4384 154.154 71.5631 157.423 73.7782 160.623C76.0159 163.851 78.118 167.214 80.3964 170.401C80.6812 170.808 80.1523 171.31 79.7997 170.93C77.4264 168.286 75.0801 165.763 73.0187 162.888C70.9573 160.013 68.9502 157.138 67.0786 154.168C63.1707 148.059 59.638 141.719 56.5003 135.181C50.2536 122.37 45.935 108.705 43.6843 94.6309C43.1059 90.7391 42.7437 86.8182 42.5993 82.8863C42.2387 79.0481 42.4443 75.1777 43.2096 71.3993C43.2335 71.306 43.2878 71.2232 43.3639 71.1642C43.4401 71.1051 43.5337 71.073 43.6301 71.073C43.7264 71.073 43.8201 71.1051 43.8962 71.1642C43.9723 71.2232 44.0266 71.306 44.0505 71.3993L43.9962 71.3858Z" fill="#9AA97B"/>
<path d="M155.394 251.434C153.494 250.949 151.71 250.091 150.145 248.911C148.238 247.692 146.425 246.332 144.72 244.843C141.398 241.891 138.251 238.749 135.295 235.431C128.568 228.135 122.131 220.599 115.983 212.823C112.484 208.499 109.246 203.97 106.286 199.261C106.11 198.99 106.544 198.705 106.747 198.949C112.972 206.313 118.654 214.112 124.839 221.503C130.702 228.747 136.997 235.631 143.69 242.117C145.468 243.806 147.357 245.373 149.345 246.809C151.366 248.26 153.739 249.264 155.665 250.878C155.895 251.068 155.814 251.57 155.448 251.502L155.394 251.434Z" fill="#9AA97B"/>
<path d="M126.412 227.09C120.425 219.6 114.004 212.468 107.181 205.73C100.265 198.868 92.7786 192.765 85.3602 186.472C85.0212 186.187 85.3602 185.618 85.7535 185.889C93.6309 191.44 100.969 197.72 107.67 204.645C114.571 211.545 120.945 218.952 126.738 226.805C126.9 227.022 126.588 227.294 126.412 227.09V227.09Z" fill="#9AA97B"/>
<path d="M101.648 195.003C94.2836 187.517 85.821 181.292 77.616 174.796C70.2926 168.991 63.0234 162.78 57.5308 155.144C54.4551 151.11 52.1558 146.539 50.7499 141.664C50.6685 141.325 51.211 141.121 51.3466 141.46C53.1039 145.746 55.3038 149.837 57.9106 153.666C60.5931 157.377 63.6023 160.84 66.9021 164.014C74.0086 170.944 82.1593 176.667 89.8624 182.892C94.3178 186.401 98.4772 190.27 102.299 194.46C102.651 194.854 102.055 195.369 101.688 195.003H101.648Z" fill="#9AA97B"/>
<path d="M80.7082 228.691C72.2395 230.095 63.5442 228.664 55.9713 224.622C55.6322 224.432 55.9712 223.876 56.2832 224.012C60.2453 225.475 64.3301 226.583 68.4889 227.321C72.5305 227.912 76.61 228.207 80.6946 228.203C80.7512 228.216 80.8017 228.248 80.8378 228.293C80.8739 228.339 80.8936 228.395 80.8936 228.453C80.8936 228.512 80.8739 228.568 80.8378 228.614C80.8017 228.659 80.7512 228.691 80.6946 228.704L80.7082 228.691Z" fill="#9AA97B"/>
<path d="M148.735 239.838C143.866 235.634 140.815 229.83 137.804 224.242C136.258 221.218 134.541 218.284 132.664 215.454C130.732 212.841 128.625 210.363 126.358 208.036C126.305 207.991 126.273 207.927 126.268 207.858C126.263 207.79 126.286 207.722 126.331 207.67C126.375 207.617 126.439 207.585 126.508 207.58C126.577 207.575 126.645 207.597 126.697 207.642C129.263 209.469 131.454 211.771 133.152 214.423C134.983 217.054 136.597 219.848 138.157 222.561C141.425 228.419 144.571 234.332 149.006 239.472C149.128 239.621 148.938 239.866 148.775 239.73L148.735 239.838Z" fill="#9AA97B"/>
<path d="M139.106 193.498C136.95 189.741 133.749 186.839 131.444 183.204C129.129 179.558 127.519 175.51 126.697 171.27C126.668 171.138 126.693 171.001 126.765 170.888C126.838 170.775 126.952 170.695 127.084 170.666C127.215 170.637 127.352 170.662 127.465 170.734C127.579 170.807 127.658 170.921 127.687 171.053C129.369 176.342 132.23 180.804 135.214 185.428C135.377 185.686 134.983 185.903 134.794 185.713C130.847 181.834 128.365 176.464 126.656 171.27L127.647 171.053C128.553 175.539 130.347 179.8 132.922 183.584C135.065 186.689 138.767 189.483 139.5 193.348C139.513 193.404 139.505 193.463 139.477 193.513C139.45 193.563 139.404 193.601 139.35 193.62C139.296 193.638 139.237 193.636 139.184 193.614C139.132 193.591 139.089 193.55 139.066 193.498H139.106Z" fill="#9AA97B"/>
<path d="M148.789 236.556C147.051 235.263 145.796 233.425 145.223 231.335C145.215 231.27 145.23 231.205 145.265 231.149C145.3 231.094 145.353 231.053 145.415 231.032C145.478 231.011 145.545 231.013 145.606 231.036C145.667 231.059 145.719 231.102 145.752 231.159C146.28 232.027 146.633 232.976 147.203 233.871C147.769 234.713 148.414 235.498 149.128 236.217C149.332 236.421 149.02 236.787 148.789 236.597V236.556Z" fill="#9AA97B"/>
<path d="M132.162 179.406C129.748 173.819 127.239 168.258 124.283 162.929C121.326 157.599 117.719 152.703 114.41 147.604C114.22 147.332 114.654 147.088 114.857 147.292C119.139 151.726 122.765 156.75 125.626 162.21C128.686 167.548 131.055 173.254 132.678 179.189C132.689 179.223 132.694 179.259 132.692 179.295C132.69 179.33 132.68 179.365 132.665 179.397C132.649 179.429 132.627 179.458 132.6 179.482C132.573 179.505 132.542 179.524 132.508 179.535C132.474 179.547 132.439 179.552 132.403 179.549C132.367 179.547 132.332 179.538 132.3 179.522C132.268 179.506 132.239 179.484 132.216 179.458C132.192 179.431 132.174 179.399 132.162 179.366V179.406Z" fill="#9AA97B"/>
</svg>
